<svg xmlns="http://www.w3.org/2000/svg" xmlns:xlink="http://www.w3.org/1999/xlink" width="220" zoomAndPan="magnify" viewBox="0 0 165 104.249996" height="139" preserveAspectRatio="xMidYMid meet" version="1.0"><defs><clipPath id="79fb965475"><path d="M 1 0 L 163.667969 0 L 163.667969 103 L 1 103 Z M 1 0 " clip-rule="nonzero"/></clipPath><clipPath id="b10677741c"><path d="M 0.589844 0 L 163.667969 0 L 163.667969 103.503906 L 0.589844 103.503906 Z M 0.589844 0 " clip-rule="nonzero"/></clipPath></defs><g clip-path="url(#79fb965475)"><path fill="#ffda7b" d="M 155.476562 73.703125 L 155.476562 84.707031 C 155.476562 90.335938 150.871094 94.945312 145.238281 94.945312 L 125.40625 94.945312 C 112.867188 99.933594 98.152344 102.75 82.285156 102.75 C 66.417969 102.75 51.703125 99.933594 39.164062 94.945312 L 19.328125 94.945312 C 13.699219 94.945312 9.09375 90.335938 9.09375 84.707031 L 9.09375 73.703125 C 4.101562 67.050781 1.289062 59.628906 1.289062 51.824219 C 1.160156 43.890625 3.976562 36.46875 9.09375 29.8125 L 9.09375 18.808594 C 9.09375 13.179688 13.699219 8.574219 19.328125 8.574219 L 39.164062 8.574219 C 51.703125 3.582031 66.417969 0.769531 82.285156 0.769531 C 98.152344 0.769531 112.867188 3.582031 125.40625 8.574219 L 145.238281 8.574219 C 150.871094 8.574219 155.476562 13.179688 155.476562 18.808594 L 155.476562 29.8125 C 160.464844 36.46875 163.28125 43.890625 163.28125 51.695312 C 163.28125 59.628906 160.464844 67.050781 155.476562 73.703125 Z M 155.476562 73.703125 " fill-opacity="1" fill-rule="nonzero"/></g><path fill="#f8f0e1" d="M 148.566406 70.503906 L 148.566406 79.972656 C 148.566406 84.835938 144.34375 88.675781 139.351562 88.675781 L 121.441406 88.675781 C 110.179688 92.898438 96.742188 95.328125 82.414062 95.328125 C 68.082031 95.328125 54.644531 92.898438 43.386719 88.675781 L 25.472656 88.675781 C 20.355469 88.675781 16.257812 84.707031 16.257812 79.972656 L 16.257812 70.503906 C 11.652344 64.875 9.09375 58.476562 9.09375 51.824219 C 9.09375 45.167969 11.652344 38.769531 16.257812 33.140625 L 16.257812 23.671875 C 16.257812 18.808594 20.480469 14.972656 25.472656 14.972656 L 43.386719 14.972656 C 54.519531 10.621094 67.953125 8.1875 82.285156 8.1875 C 96.617188 8.1875 110.050781 10.621094 121.3125 14.84375 L 139.226562 14.84375 C 144.34375 14.84375 148.4375 18.808594 148.4375 23.542969 L 148.4375 33.011719 C 153.042969 38.644531 155.605469 45.039062 155.605469 51.695312 C 155.605469 58.476562 153.042969 64.746094 148.566406 70.503906 Z M 148.566406 70.503906 " fill-opacity="1" fill-rule="nonzero"/><g clip-path="url(#b10677741c)"><path fill="#bd9f51" d="M 82.285156 103.390625 C 66.929688 103.390625 51.960938 100.703125 39.035156 95.582031 L 19.328125 95.582031 C 13.316406 95.582031 8.453125 90.722656 8.453125 84.707031 L 8.453125 73.832031 C 3.207031 66.921875 0.648438 59.371094 0.648438 51.695312 C 0.648438 44.015625 3.335938 36.46875 8.453125 29.558594 L 8.453125 18.683594 C 8.453125 12.667969 13.316406 7.804688 19.328125 7.804688 L 39.035156 7.804688 C 51.960938 2.6875 66.929688 0 82.285156 0 C 97.640625 0 112.484375 2.816406 125.535156 7.933594 L 145.238281 7.933594 C 151.253906 7.933594 156.117188 12.796875 156.117188 18.808594 L 156.117188 29.6875 C 161.363281 36.59375 163.921875 44.144531 163.921875 51.824219 C 163.921875 59.5 161.234375 67.050781 156.117188 73.957031 L 156.117188 84.835938 C 156.117188 90.847656 151.253906 95.710938 145.238281 95.710938 L 125.535156 95.710938 C 112.484375 100.703125 97.640625 103.390625 82.285156 103.390625 Z M 19.328125 9.210938 C 14.082031 9.210938 9.734375 13.5625 9.734375 18.808594 L 9.734375 30.070312 L 9.605469 30.199219 C 4.488281 36.980469 1.929688 44.273438 1.929688 51.695312 C 1.929688 59.117188 4.488281 66.539062 9.605469 73.191406 L 9.734375 73.320312 L 9.734375 84.578125 C 9.734375 89.824219 14.082031 94.175781 19.328125 94.175781 L 39.417969 94.175781 C 52.214844 99.292969 67.058594 101.980469 82.285156 101.980469 C 97.511719 101.980469 112.355469 99.292969 125.148438 94.175781 L 145.238281 94.175781 C 150.484375 94.175781 154.835938 89.824219 154.835938 84.578125 L 154.835938 73.320312 L 154.964844 73.191406 C 160.082031 66.410156 162.640625 59.117188 162.640625 51.695312 C 162.640625 44.273438 160.082031 36.851562 154.964844 30.199219 L 154.835938 30.070312 L 154.835938 18.808594 C 154.835938 13.5625 150.484375 9.210938 145.238281 9.210938 L 125.148438 9.210938 C 112.355469 4.09375 97.511719 1.40625 82.285156 1.40625 C 67.058594 1.40625 52.214844 3.964844 39.292969 9.085938 L 19.328125 9.085938 Z M 82.285156 95.96875 C 68.464844 95.96875 54.902344 93.664062 43.128906 89.3125 L 25.214844 89.3125 C 19.714844 89.3125 15.363281 85.089844 15.363281 79.972656 L 15.363281 70.761719 C 10.628906 64.875 8.199219 58.476562 8.199219 51.824219 C 8.199219 45.167969 10.628906 38.769531 15.363281 32.886719 L 15.363281 23.671875 C 15.363281 18.554688 19.84375 14.332031 25.214844 14.332031 L 43.003906 14.332031 C 54.773438 9.851562 68.335938 7.550781 82.285156 7.550781 C 96.105469 7.550781 109.667969 9.851562 121.441406 14.203125 L 139.226562 14.203125 C 144.726562 14.203125 149.078125 18.425781 149.078125 23.542969 L 149.078125 32.757812 C 153.8125 38.644531 156.242188 45.039062 156.242188 51.695312 C 156.242188 58.347656 153.8125 64.746094 149.078125 70.632812 L 149.078125 79.84375 C 149.078125 84.964844 144.601562 89.1875 139.226562 89.1875 L 121.441406 89.1875 C 109.667969 93.664062 96.105469 95.96875 82.285156 95.96875 Z M 25.214844 15.484375 C 20.480469 15.484375 16.644531 19.066406 16.644531 23.542969 L 16.644531 33.011719 C 16.644531 33.140625 16.644531 33.269531 16.515625 33.398438 C 11.910156 39.15625 9.605469 45.296875 9.605469 51.695312 C 9.605469 58.09375 11.910156 64.234375 16.515625 69.992188 C 16.644531 70.121094 16.644531 70.25 16.644531 70.375 L 16.644531 79.84375 C 16.644531 84.324219 20.480469 87.90625 25.214844 87.90625 L 43.128906 87.90625 C 43.257812 87.90625 43.257812 87.90625 43.386719 87.90625 C 55.03125 92.257812 68.464844 94.558594 82.15625 94.558594 C 95.847656 94.558594 109.410156 92.257812 120.925781 87.90625 C 121.054688 87.90625 121.054688 87.90625 121.183594 87.90625 L 139.097656 87.90625 C 143.832031 87.90625 147.671875 84.324219 147.671875 79.84375 L 147.671875 70.375 C 147.671875 70.25 147.671875 70.121094 147.796875 69.992188 C 152.40625 64.234375 154.707031 58.09375 154.707031 51.695312 C 154.707031 45.296875 152.40625 39.15625 147.796875 33.398438 C 147.671875 33.269531 147.671875 33.140625 147.671875 33.011719 L 147.671875 23.542969 C 147.671875 19.066406 143.832031 15.484375 139.097656 15.484375 L 121.183594 15.484375 C 121.054688 15.484375 121.054688 15.484375 120.925781 15.484375 C 109.410156 11.132812 95.976562 8.828125 82.285156 8.828125 C 68.59375 8.828125 55.03125 11.132812 43.515625 15.484375 C 43.386719 15.484375 43.386719 15.484375 43.257812 15.484375 Z M 25.214844 15.484375 " fill-opacity="1" fill-rule="nonzero"/></g></svg>