<svg xmlns="http://www.w3.org/2000/svg" xmlns:xlink="http://www.w3.org/1999/xlink" width="419" zoomAndPan="magnify" viewBox="0 0 314.25 62.249996" height="83" preserveAspectRatio="xMidYMid meet" version="1.0"><defs><clipPath id="322f0206d3"><path d="M 185 0 L 312 0 L 312 40 L 185 40 Z M 185 0 " clip-rule="nonzero"/></clipPath><clipPath id="a6e3ae3486"><path d="M 184.824219 0 L 311.496094 39.382812 L 304.894531 60.613281 L 178.222656 21.230469 Z M 184.824219 0 " clip-rule="nonzero"/></clipPath><clipPath id="f636c09835"><path d="M 184.824219 0 L 311.496094 39.382812 L 304.894531 60.613281 L 178.222656 21.230469 Z M 184.824219 0 " clip-rule="nonzero"/></clipPath><clipPath id="e14a2d77a8"><path d="M 185.253906 0.136719 L 311.128906 39.269531 L 307.308594 51.558594 L 181.433594 12.421875 Z M 185.253906 0.136719 " clip-rule="nonzero"/></clipPath><clipPath id="6a49b2587f"><path d="M 186 2 L 197 2 L 197 15 L 186 15 Z M 186 2 " clip-rule="nonzero"/></clipPath><clipPath id="4a9e2dcd49"><path d="M 184.824219 0 L 311.496094 39.382812 L 304.894531 60.613281 L 178.222656 21.230469 Z M 184.824219 0 " clip-rule="nonzero"/></clipPath><clipPath id="36d60b6ea8"><path d="M 184.824219 0 L 311.496094 39.382812 L 304.894531 60.613281 L 178.222656 21.230469 Z M 184.824219 0 " clip-rule="nonzero"/></clipPath><clipPath id="71b11e5607"><path d="M 197 10 L 208 10 L 208 22 L 197 22 Z M 197 10 " clip-rule="nonzero"/></clipPath><clipPath id="0d487dbfe1"><path d="M 184.824219 0 L 311.496094 39.382812 L 304.894531 60.613281 L 178.222656 21.230469 Z M 184.824219 0 " clip-rule="nonzero"/></clipPath><clipPath id="7a23361b6b"><path d="M 184.824219 0 L 311.496094 39.382812 L 304.894531 60.613281 L 178.222656 21.230469 Z M 184.824219 0 " clip-rule="nonzero"/></clipPath><clipPath id="340543863e"><path d="M 209 17 L 220 17 L 220 29 L 209 29 Z M 209 17 " clip-rule="nonzero"/></clipPath><clipPath id="514750104b"><path d="M 184.824219 0 L 311.496094 39.382812 L 304.894531 60.613281 L 178.222656 21.230469 Z M 184.824219 0 " clip-rule="nonzero"/></clipPath><clipPath id="fb61da0d2a"><path d="M 184.824219 0 L 311.496094 39.382812 L 304.894531 60.613281 L 178.222656 21.230469 Z M 184.824219 0 " clip-rule="nonzero"/></clipPath><clipPath id="7c26cb76dc"><path d="M 220 23 L 232 23 L 232 35 L 220 35 Z M 220 23 " clip-rule="nonzero"/></clipPath><clipPath id="68a54f767f"><path d="M 184.824219 0 L 311.496094 39.382812 L 304.894531 60.613281 L 178.222656 21.230469 Z M 184.824219 0 " clip-rule="nonzero"/></clipPath><clipPath id="2bfc78f9a0"><path d="M 184.824219 0 L 311.496094 39.382812 L 304.894531 60.613281 L 178.222656 21.230469 Z M 184.824219 0 " clip-rule="nonzero"/></clipPath><clipPath id="8ac7321773"><path d="M 232 27 L 244 27 L 244 40 L 232 40 Z M 232 27 " clip-rule="nonzero"/></clipPath><clipPath id="63a4844488"><path d="M 184.824219 0 L 311.496094 39.382812 L 304.894531 60.613281 L 178.222656 21.230469 Z M 184.824219 0 " clip-rule="nonzero"/></clipPath><clipPath id="ca4c7b176d"><path d="M 184.824219 0 L 311.496094 39.382812 L 304.894531 60.613281 L 178.222656 21.230469 Z M 184.824219 0 " clip-rule="nonzero"/></clipPath><clipPath id="f1b61d4e1d"><path d="M 232.875 27.984375 L 243.492188 31.285156 L 240.492188 40.929688 L 229.875 37.628906 Z M 232.875 27.984375 " clip-rule="nonzero"/></clipPath><clipPath id="2c0b03b735"><path d="M 245 32 L 256 32 L 256 44 L 245 44 Z M 245 32 " clip-rule="nonzero"/></clipPath><clipPath id="ee9c158cf2"><path d="M 184.824219 0 L 311.496094 39.382812 L 304.894531 60.613281 L 178.222656 21.230469 Z M 184.824219 0 " clip-rule="nonzero"/></clipPath><clipPath id="72e83aa7a7"><path d="M 184.824219 0 L 311.496094 39.382812 L 304.894531 60.613281 L 178.222656 21.230469 Z M 184.824219 0 " clip-rule="nonzero"/></clipPath><clipPath id="7ff1b4b5d2"><path d="M 257 35 L 269 35 L 269 47 L 257 47 Z M 257 35 " clip-rule="nonzero"/></clipPath><clipPath id="15fbeeb930"><path d="M 184.824219 0 L 311.496094 39.382812 L 304.894531 60.613281 L 178.222656 21.230469 Z M 184.824219 0 " clip-rule="nonzero"/></clipPath><clipPath id="42de1255e2"><path d="M 184.824219 0 L 311.496094 39.382812 L 304.894531 60.613281 L 178.222656 21.230469 Z M 184.824219 0 " clip-rule="nonzero"/></clipPath><clipPath id="4b0a6f11ed"><path d="M 270 37 L 282 37 L 282 49 L 270 49 Z M 270 37 " clip-rule="nonzero"/></clipPath><clipPath id="5ccb0790a3"><path d="M 184.824219 0 L 311.496094 39.382812 L 304.894531 60.613281 L 178.222656 21.230469 Z M 184.824219 0 " clip-rule="nonzero"/></clipPath><clipPath id="c79480c230"><path d="M 184.824219 0 L 311.496094 39.382812 L 304.894531 60.613281 L 178.222656 21.230469 Z M 184.824219 0 " clip-rule="nonzero"/></clipPath><clipPath id="9871b7d035"><path d="M 283 39 L 295 39 L 295 50 L 283 50 Z M 283 39 " clip-rule="nonzero"/></clipPath><clipPath id="77cbf91a09"><path d="M 184.824219 0 L 311.496094 39.382812 L 304.894531 60.613281 L 178.222656 21.230469 Z M 184.824219 0 " clip-rule="nonzero"/></clipPath><clipPath id="5fdf74a503"><path d="M 184.824219 0 L 311.496094 39.382812 L 304.894531 60.613281 L 178.222656 21.230469 Z M 184.824219 0 " clip-rule="nonzero"/></clipPath><clipPath id="8cce69459b"><path d="M 296 39 L 308 39 L 308 50 L 296 50 Z M 296 39 " clip-rule="nonzero"/></clipPath><clipPath id="a8be4ed5d5"><path d="M 184.824219 0 L 311.496094 39.382812 L 304.894531 60.613281 L 178.222656 21.230469 Z M 184.824219 0 " clip-rule="nonzero"/></clipPath><clipPath id="b77c832b42"><path d="M 184.824219 0 L 311.496094 39.382812 L 304.894531 60.613281 L 178.222656 21.230469 Z M 184.824219 0 " clip-rule="nonzero"/></clipPath><clipPath id="675159ed83"><path d="M 1.5 0 L 130 0 L 130 36 L 1.5 36 Z M 1.5 0 " clip-rule="nonzero"/></clipPath><clipPath id="02c0c85b0f"><path d="M 1.5 33.5625 L 129.839844 0.0195312 L 135.464844 21.527344 L 7.121094 55.074219 Z M 1.5 33.5625 " clip-rule="nonzero"/></clipPath><clipPath id="b02666aa08"><path d="M 1.5 33.5625 L 129.839844 0.0195312 L 135.464844 21.527344 L 7.121094 55.074219 Z M 1.5 33.5625 " clip-rule="nonzero"/></clipPath><clipPath id="860dc881c6"><path d="M 1.9375 33.449219 L 129.46875 0.113281 L 132.726562 12.566406 L 5.191406 45.898438 Z M 1.9375 33.449219 " clip-rule="nonzero"/></clipPath><clipPath id="306350c3ac"><path d="M 5 34 L 17 34 L 17 45 L 5 45 Z M 5 34 " clip-rule="nonzero"/></clipPath><clipPath id="3864dd5d3b"><path d="M 1.5 33.5625 L 129.839844 0.0195312 L 135.464844 21.527344 L 7.121094 55.074219 Z M 1.5 33.5625 " clip-rule="nonzero"/></clipPath><clipPath id="362d6828cd"><path d="M 1.5 33.5625 L 129.839844 0.0195312 L 135.464844 21.527344 L 7.121094 55.074219 Z M 1.5 33.5625 " clip-rule="nonzero"/></clipPath><clipPath id="5ec7ef3d95"><path d="M 18 35 L 30 35 L 30 46 L 18 46 Z M 18 35 " clip-rule="nonzero"/></clipPath><clipPath id="d8a1894670"><path d="M 1.5 33.5625 L 129.839844 0.0195312 L 135.464844 21.527344 L 7.121094 55.074219 Z M 1.5 33.5625 " clip-rule="nonzero"/></clipPath><clipPath id="2981c9daab"><path d="M 1.5 33.5625 L 129.839844 0.0195312 L 135.464844 21.527344 L 7.121094 55.074219 Z M 1.5 33.5625 " clip-rule="nonzero"/></clipPath><clipPath id="a4410e9fd0"><path d="M 31 34 L 43 34 L 43 45 L 31 45 Z M 31 34 " clip-rule="nonzero"/></clipPath><clipPath id="07f811004e"><path d="M 1.5 33.5625 L 129.839844 0.0195312 L 135.464844 21.527344 L 7.121094 55.074219 Z M 1.5 33.5625 " clip-rule="nonzero"/></clipPath><clipPath id="0172995332"><path d="M 1.5 33.5625 L 129.839844 0.0195312 L 135.464844 21.527344 L 7.121094 55.074219 Z M 1.5 33.5625 " clip-rule="nonzero"/></clipPath><clipPath id="32e4706a8d"><path d="M 44 32 L 56 32 L 56 44 L 44 44 Z M 44 32 " clip-rule="nonzero"/></clipPath><clipPath id="9365653a7b"><path d="M 1.5 33.5625 L 129.839844 0.0195312 L 135.464844 21.527344 L 7.121094 55.074219 Z M 1.5 33.5625 " clip-rule="nonzero"/></clipPath><clipPath id="9e613feaac"><path d="M 1.5 33.5625 L 129.839844 0.0195312 L 135.464844 21.527344 L 7.121094 55.074219 Z M 1.5 33.5625 " clip-rule="nonzero"/></clipPath><clipPath id="72626a7293"><path d="M 57 29 L 68 29 L 68 41 L 57 41 Z M 57 29 " clip-rule="nonzero"/></clipPath><clipPath id="471a92689c"><path d="M 1.5 33.5625 L 129.839844 0.0195312 L 135.464844 21.527344 L 7.121094 55.074219 Z M 1.5 33.5625 " clip-rule="nonzero"/></clipPath><clipPath id="dd61694134"><path d="M 1.5 33.5625 L 129.839844 0.0195312 L 135.464844 21.527344 L 7.121094 55.074219 Z M 1.5 33.5625 " clip-rule="nonzero"/></clipPath><clipPath id="b3b1b47c77"><path d="M 57.082031 31.910156 L 67.839844 29.101562 L 70.394531 38.871094 L 59.636719 41.683594 Z M 57.082031 31.910156 " clip-rule="nonzero"/></clipPath><clipPath id="3597200f7f"><path d="M 69 25 L 81 25 L 81 37 L 69 37 Z M 69 25 " clip-rule="nonzero"/></clipPath><clipPath id="c65d708ea8"><path d="M 1.5 33.5625 L 129.839844 0.0195312 L 135.464844 21.527344 L 7.121094 55.074219 Z M 1.5 33.5625 " clip-rule="nonzero"/></clipPath><clipPath id="b7d0c9de2f"><path d="M 1.5 33.5625 L 129.839844 0.0195312 L 135.464844 21.527344 L 7.121094 55.074219 Z M 1.5 33.5625 " clip-rule="nonzero"/></clipPath><clipPath id="cc43bb8c64"><path d="M 82 20 L 93 20 L 93 33 L 82 33 Z M 82 20 " clip-rule="nonzero"/></clipPath><clipPath id="95fe3be5a2"><path d="M 1.5 33.5625 L 129.839844 0.0195312 L 135.464844 21.527344 L 7.121094 55.074219 Z M 1.5 33.5625 " clip-rule="nonzero"/></clipPath><clipPath id="ca0aaa0ee7"><path d="M 1.5 33.5625 L 129.839844 0.0195312 L 135.464844 21.527344 L 7.121094 55.074219 Z M 1.5 33.5625 " clip-rule="nonzero"/></clipPath><clipPath id="331274c8c7"><path d="M 94 15 L 105 15 L 105 27 L 94 27 Z M 94 15 " clip-rule="nonzero"/></clipPath><clipPath id="d049cb6eab"><path d="M 1.5 33.5625 L 129.839844 0.0195312 L 135.464844 21.527344 L 7.121094 55.074219 Z M 1.5 33.5625 " clip-rule="nonzero"/></clipPath><clipPath id="9eb18412ec"><path d="M 1.5 33.5625 L 129.839844 0.0195312 L 135.464844 21.527344 L 7.121094 55.074219 Z M 1.5 33.5625 " clip-rule="nonzero"/></clipPath><clipPath id="964882285e"><path d="M 105 9 L 116 9 L 116 21 L 105 21 Z M 105 9 " clip-rule="nonzero"/></clipPath><clipPath id="1cc170870b"><path d="M 1.5 33.5625 L 129.839844 0.0195312 L 135.464844 21.527344 L 7.121094 55.074219 Z M 1.5 33.5625 " clip-rule="nonzero"/></clipPath><clipPath id="797140123f"><path d="M 1.5 33.5625 L 129.839844 0.0195312 L 135.464844 21.527344 L 7.121094 55.074219 Z M 1.5 33.5625 " clip-rule="nonzero"/></clipPath><clipPath id="d0913717dc"><path d="M 117 2 L 128 2 L 128 14 L 117 14 Z M 117 2 " clip-rule="nonzero"/></clipPath><clipPath id="a3ae0d7ddb"><path d="M 1.5 33.5625 L 129.839844 0.0195312 L 135.464844 21.527344 L 7.121094 55.074219 Z M 1.5 33.5625 " clip-rule="nonzero"/></clipPath><clipPath id="6105c677b2"><path d="M 1.5 33.5625 L 129.839844 0.0195312 L 135.464844 21.527344 L 7.121094 55.074219 Z M 1.5 33.5625 " clip-rule="nonzero"/></clipPath></defs><g clip-path="url(#322f0206d3)"><g clip-path="url(#a6e3ae3486)"><g clip-path="url(#f636c09835)"><g clip-path="url(#e14a2d77a8)"><path fill="#ed001b" d="M 242.570312 31.417969 C 242.246094 31.320312 241.925781 31.21875 241.601562 31.113281 C 219.917969 24.242188 200.410156 13.597656 185.191406 0.335938 L 185.285156 0.230469 C 200.488281 13.480469 219.976562 24.113281 241.644531 30.984375 C 252.597656 34.453125 263.988281 36.925781 275.5 38.332031 C 287.367188 39.78125 299.339844 40.089844 311.082031 39.253906 L 311.089844 39.390625 C 299.339844 40.230469 287.359375 39.921875 275.484375 38.472656 C 264.300781 37.105469 253.230469 34.734375 242.570312 31.417969 " fill-opacity="1" fill-rule="nonzero"/></g></g></g></g><g clip-path="url(#6a49b2587f)"><g clip-path="url(#4a9e2dcd49)"><g clip-path="url(#36d60b6ea8)"><path fill="#ed001b" d="M 186.519531 14.03125 C 186.519531 14.03125 187.195312 13.769531 188.191406 13.363281 C 188.691406 13.160156 189.273438 12.921875 189.890625 12.664062 C 190.507812 12.40625 191.167969 12.121094 191.820312 11.835938 C 192.472656 11.550781 193.121094 11.261719 193.730469 10.988281 C 194.335938 10.710938 194.902344 10.449219 195.382812 10.222656 C 196.34375 9.773438 196.976562 9.46875 196.976562 9.46875 C 196.976562 9.46875 196.417969 9.066406 195.582031 8.46875 C 195.167969 8.164062 194.683594 7.808594 194.167969 7.425781 C 194.035156 7.332031 193.90625 7.234375 193.773438 7.132812 C 193.644531 7.035156 193.511719 6.933594 193.375 6.828125 C 193.109375 6.625 192.835938 6.417969 192.5625 6.210938 C 192.292969 6 192.023438 5.789062 191.757812 5.582031 C 191.496094 5.371094 191.230469 5.167969 190.984375 4.96875 C 190.484375 4.5625 190.019531 4.1875 189.621094 3.863281 C 188.835938 3.203125 188.3125 2.765625 188.3125 2.765625 C 188.3125 2.765625 188.171875 3.453125 187.976562 4.496094 C 187.878906 5.019531 187.765625 5.628906 187.648438 6.289062 C 187.535156 6.945312 187.417969 7.644531 187.308594 8.347656 C 187.195312 9.050781 187.085938 9.761719 186.992188 10.425781 C 186.898438 11.089844 186.8125 11.710938 186.742188 12.242188 C 186.675781 12.777344 186.617188 13.226562 186.578125 13.539062 C 186.542969 13.851562 186.519531 14.03125 186.519531 14.03125 " fill-opacity="1" fill-rule="nonzero"/></g></g></g><g clip-path="url(#71b11e5607)"><g clip-path="url(#0d487dbfe1)"><g clip-path="url(#7a23361b6b)"><path fill="#221e1a" d="M 197.839844 21.894531 C 197.839844 21.894531 198 21.8125 198.28125 21.667969 C 198.558594 21.527344 198.957031 21.316406 199.433594 21.066406 C 199.910156 20.816406 200.464844 20.519531 201.054688 20.203125 C 201.347656 20.042969 201.652344 19.878906 201.960938 19.710938 C 202.269531 19.539062 202.582031 19.367188 202.894531 19.195312 C 203.519531 18.847656 204.136719 18.496094 204.714844 18.167969 C 205.003906 18 205.285156 17.839844 205.546875 17.6875 C 205.8125 17.535156 206.0625 17.390625 206.292969 17.253906 C 207.210938 16.714844 207.816406 16.351562 207.816406 16.351562 C 207.816406 16.351562 207.664062 16.265625 207.402344 16.113281 C 207.273438 16.039062 207.113281 15.945312 206.933594 15.84375 C 206.839844 15.789062 206.746094 15.734375 206.640625 15.675781 C 206.539062 15.613281 206.433594 15.550781 206.324219 15.484375 C 206.101562 15.351562 205.859375 15.207031 205.605469 15.058594 C 205.476562 14.980469 205.347656 14.902344 205.214844 14.824219 C 205.148438 14.785156 205.078125 14.746094 205.011719 14.703125 C 204.941406 14.664062 204.875 14.621094 204.804688 14.578125 C 204.53125 14.410156 204.246094 14.234375 203.957031 14.058594 C 203.667969 13.878906 203.371094 13.703125 203.082031 13.515625 C 202.792969 13.332031 202.5 13.148438 202.214844 12.96875 C 202.070312 12.878906 201.929688 12.785156 201.789062 12.699219 C 201.648438 12.609375 201.511719 12.519531 201.375 12.429688 C 201.105469 12.253906 200.84375 12.085938 200.597656 11.921875 C 200.347656 11.761719 200.113281 11.609375 199.902344 11.464844 C 199.472656 11.175781 199.117188 10.9375 198.867188 10.769531 C 198.742188 10.6875 198.644531 10.621094 198.574219 10.574219 C 198.507812 10.527344 198.472656 10.503906 198.472656 10.503906 C 198.472656 10.503906 198.457031 10.679688 198.429688 10.988281 C 198.40625 11.296875 198.367188 11.738281 198.324219 12.265625 C 198.238281 13.324219 198.132812 14.746094 198.058594 16.167969 C 198.019531 16.878906 197.984375 17.59375 197.953125 18.265625 C 197.925781 18.9375 197.90625 19.558594 197.886719 20.097656 C 197.855469 21.171875 197.839844 21.894531 197.839844 21.894531 " fill-opacity="1" fill-rule="nonzero"/></g></g></g><g clip-path="url(#340543863e)"><g clip-path="url(#514750104b)"><g clip-path="url(#fb61da0d2a)"><path fill="#52b3ec" d="M 209.78125 28.652344 C 209.78125 28.652344 210.390625 28.273438 211.296875 27.691406 C 211.746094 27.40625 212.273438 27.0625 212.835938 26.695312 C 213.394531 26.324219 213.992188 25.929688 214.582031 25.535156 C 214.878906 25.335938 215.171875 25.136719 215.464844 24.941406 C 215.753906 24.742188 216.039062 24.546875 216.3125 24.359375 C 216.863281 23.980469 217.375 23.625 217.808594 23.320312 C 218.246094 23.015625 218.605469 22.761719 218.859375 22.582031 C 219.109375 22.398438 219.253906 22.296875 219.253906 22.296875 C 219.253906 22.296875 219.214844 22.277344 219.140625 22.246094 C 219.070312 22.210938 218.960938 22.160156 218.824219 22.09375 C 218.550781 21.964844 218.160156 21.777344 217.691406 21.550781 C 217.222656 21.328125 216.679688 21.058594 216.097656 20.773438 C 215.808594 20.628906 215.507812 20.480469 215.203125 20.328125 C 214.898438 20.171875 214.59375 20.015625 214.285156 19.859375 C 214.128906 19.777344 213.976562 19.699219 213.824219 19.621094 C 213.667969 19.542969 213.515625 19.464844 213.367188 19.386719 C 213.066406 19.226562 212.769531 19.070312 212.480469 18.921875 C 212.195312 18.769531 211.917969 18.625 211.65625 18.484375 C 211.394531 18.339844 211.148438 18.207031 210.921875 18.082031 C 210.464844 17.835938 210.085938 17.632812 209.820312 17.484375 C 209.558594 17.335938 209.40625 17.25 209.40625 17.25 C 209.40625 17.25 209.40625 17.429688 209.410156 17.738281 C 209.410156 18.046875 209.410156 18.492188 209.417969 19.023438 C 209.429688 20.085938 209.457031 21.507812 209.503906 22.9375 C 209.550781 24.359375 209.617188 25.789062 209.675781 26.863281 C 209.707031 27.402344 209.730469 27.847656 209.75 28.160156 C 209.769531 28.476562 209.78125 28.652344 209.78125 28.652344 " fill-opacity="1" fill-rule="nonzero"/></g></g></g><g clip-path="url(#7c26cb76dc)"><g clip-path="url(#68a54f767f)"><g clip-path="url(#2bfc78f9a0)"><path fill="#ed001b" d="M 222.191406 34.40625 C 222.191406 34.40625 222.335938 34.300781 222.585938 34.113281 C 222.839844 33.925781 223.199219 33.65625 223.625 33.328125 C 224.054688 33.003906 224.554688 32.625 225.082031 32.214844 C 225.613281 31.804688 226.175781 31.371094 226.738281 30.925781 C 227.859375 30.042969 228.964844 29.152344 229.789062 28.476562 C 230.613281 27.800781 231.15625 27.347656 231.15625 27.347656 C 231.15625 27.347656 230.996094 27.285156 230.710938 27.175781 C 230.570312 27.121094 230.398438 27.058594 230.199219 26.980469 C 230.003906 26.902344 229.78125 26.816406 229.539062 26.71875 C 228.570312 26.34375 227.28125 25.820312 226.003906 25.289062 C 225.683594 25.152344 225.363281 25.019531 225.050781 24.886719 C 224.890625 24.820312 224.734375 24.753906 224.582031 24.6875 C 224.425781 24.625 224.277344 24.554688 224.128906 24.492188 C 223.53125 24.230469 222.976562 23.992188 222.5 23.78125 C 221.550781 23.351562 220.921875 23.070312 220.921875 23.070312 C 220.921875 23.070312 220.976562 23.773438 221.074219 24.832031 C 221.125 25.363281 221.183594 25.980469 221.25 26.648438 C 221.316406 27.3125 221.394531 28.015625 221.472656 28.726562 C 221.554688 29.433594 221.636719 30.144531 221.71875 30.8125 C 221.800781 31.476562 221.878906 32.09375 221.949219 32.628906 C 222.089844 33.691406 222.191406 34.40625 222.191406 34.40625 " fill-opacity="1" fill-rule="nonzero"/></g></g></g><g clip-path="url(#8ac7321773)"><g clip-path="url(#63a4844488)"><g clip-path="url(#ca4c7b176d)"><g clip-path="url(#f1b61d4e1d)"><path fill="#221e1a" d="M 234.96875 39.210938 C 234.96875 39.210938 235.515625 38.742188 236.324219 38.035156 C 237.132812 37.324219 238.199219 36.378906 239.253906 35.414062 C 240.3125 34.453125 241.351562 33.492188 242.128906 32.757812 C 242.902344 32.023438 243.414062 31.535156 243.414062 31.535156 C 243.414062 31.535156 243.246094 31.484375 242.957031 31.394531 C 242.8125 31.351562 242.632812 31.296875 242.433594 31.234375 C 242.230469 31.171875 242 31.105469 241.753906 31.023438 C 241.257812 30.867188 240.675781 30.683594 240.054688 30.484375 C 239.4375 30.28125 238.777344 30.0625 238.117188 29.84375 C 237.460938 29.621094 236.804688 29.394531 236.1875 29.183594 C 235.574219 28.964844 235 28.765625 234.507812 28.589844 C 234.019531 28.417969 233.613281 28.261719 233.328125 28.160156 C 233.042969 28.054688 232.878906 27.992188 232.878906 27.992188 C 232.878906 27.992188 232.988281 28.691406 233.164062 29.746094 C 233.207031 30.007812 233.257812 30.292969 233.308594 30.59375 C 233.359375 30.894531 233.417969 31.210938 233.472656 31.539062 C 233.589844 32.195312 233.714844 32.894531 233.847656 33.597656 C 233.914062 33.949219 233.980469 34.300781 234.042969 34.644531 C 234.109375 34.992188 234.175781 35.332031 234.242188 35.660156 C 234.371094 36.316406 234.496094 36.929688 234.601562 37.457031 C 234.710938 37.984375 234.804688 38.421875 234.867188 38.730469 C 234.933594 39.035156 234.96875 39.210938 234.96875 39.210938 " fill-opacity="1" fill-rule="nonzero"/></g></g></g></g><g clip-path="url(#2c0b03b735)"><g clip-path="url(#ee9c158cf2)"><g clip-path="url(#72e83aa7a7)"><path fill="#52b3ec" d="M 248.039062 43.109375 C 248.039062 43.109375 248.546875 42.601562 249.304688 41.839844 C 249.683594 41.460938 250.125 41.015625 250.59375 40.539062 C 251.0625 40.058594 251.558594 39.542969 252.050781 39.027344 C 252.546875 38.515625 253.039062 38 253.496094 37.515625 C 253.953125 37.027344 254.375 36.574219 254.738281 36.183594 C 255.464844 35.398438 255.9375 34.878906 255.9375 34.878906 C 255.9375 34.878906 255.261719 34.71875 254.246094 34.480469 C 253.742188 34.355469 253.148438 34.210938 252.515625 34.054688 C 252.199219 33.976562 251.875 33.890625 251.542969 33.808594 C 251.210938 33.722656 250.875 33.632812 250.539062 33.546875 C 249.191406 33.195312 247.851562 32.828125 246.847656 32.542969 C 246.597656 32.472656 246.367188 32.40625 246.164062 32.351562 C 245.960938 32.292969 245.78125 32.238281 245.636719 32.195312 C 245.34375 32.109375 245.179688 32.0625 245.179688 32.0625 C 245.179688 32.0625 245.335938 32.75 245.585938 33.789062 C 245.835938 34.824219 246.175781 36.203125 246.53125 37.585938 C 246.578125 37.761719 246.621094 37.933594 246.667969 38.105469 C 246.710938 38.277344 246.757812 38.449219 246.800781 38.617188 C 246.894531 38.957031 246.980469 39.289062 247.070312 39.613281 C 247.242188 40.261719 247.40625 40.863281 247.550781 41.382812 C 247.695312 41.902344 247.816406 42.335938 247.902344 42.636719 C 247.988281 42.9375 248.039062 43.109375 248.039062 43.109375 " fill-opacity="1" fill-rule="nonzero"/></g></g></g><g clip-path="url(#7ff1b4b5d2)"><g clip-path="url(#15fbeeb930)"><g clip-path="url(#42de1255e2)"><path fill="#ed001b" d="M 261.332031 46.113281 C 261.332031 46.113281 261.808594 45.574219 262.511719 44.761719 C 262.863281 44.355469 263.273438 43.886719 263.707031 43.375 C 264.144531 42.863281 264.605469 42.320312 265.066406 41.773438 C 265.523438 41.226562 265.976562 40.683594 266.402344 40.164062 C 266.824219 39.648438 267.21875 39.167969 267.554688 38.753906 C 268.222656 37.925781 268.664062 37.371094 268.664062 37.371094 C 268.664062 37.371094 267.976562 37.257812 266.949219 37.085938 C 266.433594 37 265.835938 36.890625 265.195312 36.777344 C 265.035156 36.75 264.871094 36.722656 264.707031 36.691406 C 264.539062 36.660156 264.375 36.628906 264.203125 36.597656 C 263.867188 36.535156 263.527344 36.46875 263.1875 36.40625 C 263.015625 36.371094 262.84375 36.339844 262.675781 36.308594 C 262.503906 36.273438 262.335938 36.242188 262.167969 36.207031 C 261.832031 36.140625 261.5 36.074219 261.179688 36.011719 C 260.542969 35.886719 259.945312 35.757812 259.4375 35.648438 C 258.925781 35.542969 258.5 35.453125 258.203125 35.386719 C 257.90625 35.320312 257.738281 35.28125 257.738281 35.28125 C 257.738281 35.28125 257.789062 35.453125 257.878906 35.75 C 257.96875 36.046875 258.101562 36.472656 258.257812 36.980469 C 258.578125 37.992188 259.011719 39.347656 259.460938 40.707031 C 259.910156 42.054688 260.375 43.410156 260.730469 44.425781 C 260.910156 44.933594 261.058594 45.351562 261.164062 45.648438 C 261.269531 45.941406 261.332031 46.113281 261.332031 46.113281 " fill-opacity="1" fill-rule="nonzero"/></g></g></g><g clip-path="url(#4b0a6f11ed)"><g clip-path="url(#5ccb0790a3)"><g clip-path="url(#c79480c230)"><path fill="#221e1a" d="M 274.800781 48.214844 C 274.800781 48.214844 275.238281 47.648438 275.886719 46.792969 C 276.535156 45.941406 277.390625 44.785156 278.230469 43.636719 C 278.441406 43.347656 278.652344 43.058594 278.855469 42.777344 C 278.957031 42.632812 279.058594 42.492188 279.160156 42.355469 C 279.261719 42.214844 279.359375 42.078125 279.457031 41.941406 C 279.84375 41.394531 280.203125 40.886719 280.507812 40.453125 C 281.121094 39.582031 281.523438 39 281.523438 39 C 281.523438 39 280.832031 38.933594 279.792969 38.832031 C 278.757812 38.722656 277.375 38.578125 275.996094 38.40625 C 275.304688 38.328125 274.613281 38.234375 273.96875 38.148438 C 273.644531 38.105469 273.332031 38.066406 273.039062 38.027344 C 272.742188 37.984375 272.460938 37.945312 272.203125 37.90625 C 271.6875 37.832031 271.257812 37.769531 270.957031 37.726562 C 270.65625 37.679688 270.484375 37.65625 270.484375 37.65625 C 270.484375 37.65625 270.546875 37.820312 270.65625 38.109375 C 270.769531 38.402344 270.925781 38.816406 271.121094 39.3125 C 271.503906 40.300781 272.027344 41.625 272.566406 42.949219 C 273.109375 44.265625 273.664062 45.585938 274.085938 46.574219 C 274.296875 47.070312 274.476562 47.476562 274.601562 47.765625 C 274.730469 48.050781 274.800781 48.214844 274.800781 48.214844 " fill-opacity="1" fill-rule="nonzero"/></g></g></g><g clip-path="url(#9871b7d035)"><g clip-path="url(#77cbf91a09)"><g clip-path="url(#5fdf74a503)"><path fill="#52b3ec" d="M 288.390625 49.394531 C 288.390625 49.394531 288.789062 48.796875 289.378906 47.898438 C 289.523438 47.671875 289.683594 47.429688 289.851562 47.171875 C 290.015625 46.914062 290.191406 46.640625 290.371094 46.359375 C 290.734375 45.792969 291.117188 45.1875 291.496094 44.585938 C 292.253906 43.382812 292.996094 42.160156 293.542969 41.25 C 293.8125 40.792969 294.042969 40.414062 294.199219 40.148438 C 294.359375 39.878906 294.449219 39.730469 294.449219 39.730469 C 294.449219 39.730469 293.753906 39.710938 292.714844 39.683594 C 292.582031 39.679688 292.449219 39.675781 292.308594 39.671875 C 292.167969 39.667969 292.023438 39.660156 291.875 39.65625 C 291.578125 39.644531 291.261719 39.632812 290.9375 39.621094 C 290.773438 39.613281 290.609375 39.605469 290.441406 39.601562 C 290.273438 39.59375 290.105469 39.585938 289.933594 39.578125 C 289.59375 39.5625 289.246094 39.542969 288.898438 39.527344 C 288.550781 39.507812 288.207031 39.492188 287.863281 39.472656 C 287.523438 39.449219 287.1875 39.429688 286.863281 39.410156 C 286.539062 39.390625 286.222656 39.371094 285.925781 39.351562 C 285.628906 39.328125 285.347656 39.308594 285.085938 39.289062 C 284.566406 39.25 284.132812 39.21875 283.832031 39.195312 C 283.53125 39.171875 283.355469 39.15625 283.355469 39.15625 C 283.355469 39.15625 283.429688 39.320312 283.558594 39.601562 C 283.691406 39.882812 283.875 40.285156 284.101562 40.765625 C 284.554688 41.726562 285.167969 43.015625 285.796875 44.292969 C 286.425781 45.570312 287.074219 46.847656 287.5625 47.808594 C 288.054688 48.761719 288.390625 49.394531 288.390625 49.394531 " fill-opacity="1" fill-rule="nonzero"/></g></g></g><g clip-path="url(#8cce69459b)"><g clip-path="url(#a8be4ed5d5)"><g clip-path="url(#b77c832b42)"><path fill="#ed001b" d="M 302.050781 49.601562 C 302.050781 49.601562 302.40625 48.976562 302.925781 48.035156 C 303.445312 47.097656 304.128906 45.832031 304.792969 44.574219 C 305.125 43.949219 305.453125 43.3125 305.757812 42.71875 C 306.0625 42.125 306.34375 41.570312 306.582031 41.09375 C 306.820312 40.621094 307.015625 40.222656 307.15625 39.949219 C 307.292969 39.667969 307.371094 39.507812 307.371094 39.507812 C 307.371094 39.507812 307.328125 39.511719 307.246094 39.515625 C 307.164062 39.523438 307.046875 39.527344 306.894531 39.535156 C 306.59375 39.550781 306.160156 39.570312 305.640625 39.59375 C 305.382812 39.605469 305.101562 39.621094 304.804688 39.632812 C 304.503906 39.640625 304.191406 39.652344 303.867188 39.664062 C 303.542969 39.675781 303.207031 39.6875 302.867188 39.699219 C 302.527344 39.707031 302.179688 39.710938 301.832031 39.71875 C 301.484375 39.726562 301.140625 39.734375 300.796875 39.742188 C 300.457031 39.746094 300.121094 39.75 299.796875 39.753906 C 299.472656 39.757812 299.15625 39.757812 298.859375 39.761719 C 298.5625 39.765625 298.28125 39.761719 298.019531 39.761719 C 297.5 39.761719 297.066406 39.761719 296.761719 39.757812 C 296.609375 39.761719 296.492188 39.757812 296.410156 39.757812 C 296.328125 39.757812 296.285156 39.753906 296.285156 39.753906 C 296.285156 39.753906 296.371094 39.910156 296.519531 40.183594 C 296.671875 40.453125 296.886719 40.839844 297.144531 41.304688 C 297.40625 41.769531 297.710938 42.308594 298.042969 42.890625 C 298.371094 43.46875 298.730469 44.089844 299.089844 44.703125 C 299.808594 45.929688 300.546875 47.160156 301.109375 48.078125 C 301.667969 48.992188 302.050781 49.601562 302.050781 49.601562 " fill-opacity="1" fill-rule="nonzero"/></g></g></g><g clip-path="url(#675159ed83)"><g clip-path="url(#02c0c85b0f)"><g clip-path="url(#b02666aa08)"><g clip-path="url(#860dc881c6)"><path fill="#ed001b" d="M 67.128906 29.699219 C 66.800781 29.785156 66.472656 29.871094 66.144531 29.953125 C 44.105469 35.585938 21.917969 36.863281 1.992188 33.652344 L 2.015625 33.515625 C 21.921875 36.722656 44.085938 35.445312 66.113281 29.820312 C 77.242188 26.976562 88.21875 23.050781 98.734375 18.15625 C 109.574219 13.113281 119.898438 7.046875 129.421875 0.128906 L 129.503906 0.242188 C 119.972656 7.164062 109.640625 13.238281 98.792969 18.285156 C 88.578125 23.039062 77.929688 26.875 67.128906 29.699219 " fill-opacity="1" fill-rule="nonzero"/></g></g></g></g><g clip-path="url(#306350c3ac)"><g clip-path="url(#3864dd5d3b)"><g clip-path="url(#362d6828cd)"><path fill="#ed001b" d="M 10.359375 44.574219 C 10.359375 44.574219 10.792969 43.996094 11.425781 43.125 C 11.742188 42.6875 12.109375 42.179688 12.496094 41.636719 C 12.886719 41.085938 13.292969 40.496094 13.699219 39.910156 C 14.101562 39.320312 14.5 38.734375 14.871094 38.179688 C 15.238281 37.625 15.578125 37.105469 15.867188 36.660156 C 16.449219 35.765625 16.824219 35.171875 16.824219 35.171875 C 16.824219 35.171875 16.136719 35.128906 15.109375 35.0625 C 14.597656 35.023438 14 34.976562 13.359375 34.929688 C 13.195312 34.917969 13.035156 34.902344 12.871094 34.886719 C 12.707031 34.871094 12.539062 34.855469 12.371094 34.839844 C 12.035156 34.808594 11.695312 34.773438 11.351562 34.742188 C 11.011719 34.707031 10.671875 34.667969 10.335938 34.632812 C 10.003906 34.59375 9.671875 34.5625 9.355469 34.523438 C 8.71875 34.441406 8.125 34.367188 7.617188 34.304688 C 6.601562 34.160156 5.925781 34.066406 5.925781 34.066406 C 5.925781 34.066406 6.171875 34.722656 6.554688 35.714844 C 6.746094 36.207031 6.972656 36.785156 7.222656 37.40625 C 7.472656 38.023438 7.746094 38.679688 8.023438 39.335938 C 8.300781 39.992188 8.582031 40.652344 8.851562 41.265625 C 9.125 41.878906 9.378906 42.449219 9.605469 42.941406 C 9.828125 43.429688 10.015625 43.839844 10.148438 44.125 C 10.28125 44.410156 10.359375 44.574219 10.359375 44.574219 " fill-opacity="1" fill-rule="nonzero"/></g></g></g><g clip-path="url(#5ec7ef3d95)"><g clip-path="url(#d8a1894670)"><g clip-path="url(#2981c9daab)"><path fill="#221e1a" d="M 24.125 45.265625 C 24.125 45.265625 24.21875 45.109375 24.378906 44.839844 C 24.539062 44.574219 24.769531 44.183594 25.039062 43.71875 C 25.3125 43.253906 25.625 42.710938 25.957031 42.128906 C 26.125 41.839844 26.292969 41.539062 26.46875 41.234375 C 26.640625 40.925781 26.8125 40.613281 26.988281 40.300781 C 27.332031 39.675781 27.675781 39.050781 27.992188 38.464844 C 28.148438 38.171875 28.300781 37.890625 28.445312 37.621094 C 28.585938 37.351562 28.722656 37.09375 28.84375 36.859375 C 29.339844 35.914062 29.660156 35.285156 29.660156 35.285156 C 29.660156 35.285156 29.488281 35.292969 29.1875 35.300781 C 29.035156 35.308594 28.851562 35.3125 28.640625 35.320312 C 28.535156 35.324219 28.425781 35.328125 28.308594 35.332031 C 28.191406 35.335938 28.066406 35.335938 27.9375 35.339844 C 27.675781 35.34375 27.398438 35.351562 27.101562 35.355469 C 26.953125 35.359375 26.800781 35.363281 26.644531 35.367188 C 26.566406 35.367188 26.488281 35.367188 26.410156 35.371094 C 26.332031 35.371094 26.25 35.371094 26.167969 35.371094 C 25.847656 35.375 25.511719 35.378906 25.171875 35.378906 C 24.832031 35.382812 24.488281 35.386719 24.144531 35.382812 C 23.800781 35.378906 23.457031 35.378906 23.117188 35.375 C 22.949219 35.375 22.78125 35.375 22.613281 35.371094 C 22.449219 35.371094 22.285156 35.367188 22.121094 35.363281 C 21.800781 35.355469 21.488281 35.351562 21.191406 35.34375 C 20.898438 35.339844 20.617188 35.332031 20.359375 35.324219 C 19.84375 35.304688 19.414062 35.289062 19.113281 35.28125 C 18.964844 35.273438 18.84375 35.269531 18.765625 35.269531 C 18.683594 35.265625 18.640625 35.261719 18.640625 35.261719 C 18.640625 35.261719 18.722656 35.417969 18.859375 35.695312 C 19 35.972656 19.203125 36.363281 19.445312 36.835938 C 19.933594 37.78125 20.597656 39.042969 21.28125 40.289062 C 21.625 40.914062 21.972656 41.539062 22.304688 42.125 C 22.632812 42.710938 22.945312 43.25 23.214844 43.714844 C 23.753906 44.644531 24.125 45.265625 24.125 45.265625 " fill-opacity="1" fill-rule="nonzero"/></g></g></g><g clip-path="url(#a4410e9fd0)"><g clip-path="url(#07f811004e)"><g clip-path="url(#0172995332)"><path fill="#52b3ec" d="M 37.835938 44.691406 C 37.835938 44.691406 38.148438 44.042969 38.609375 43.074219 C 38.84375 42.589844 39.109375 42.019531 39.390625 41.410156 C 39.671875 40.800781 39.96875 40.152344 40.261719 39.503906 C 40.40625 39.179688 40.550781 38.851562 40.695312 38.535156 C 40.835938 38.210938 40.972656 37.894531 41.109375 37.589844 C 41.375 36.976562 41.621094 36.40625 41.828125 35.917969 C 42.035156 35.429688 42.207031 35.023438 42.328125 34.734375 C 42.445312 34.449219 42.515625 34.285156 42.515625 34.285156 C 42.515625 34.285156 42.472656 34.289062 42.390625 34.300781 C 42.308594 34.308594 42.191406 34.324219 42.042969 34.339844 C 41.742188 34.375 41.308594 34.421875 40.792969 34.476562 C 40.277344 34.539062 39.675781 34.59375 39.03125 34.660156 C 38.707031 34.691406 38.375 34.726562 38.035156 34.753906 C 37.695312 34.785156 37.351562 34.8125 37.003906 34.84375 C 36.832031 34.855469 36.660156 34.871094 36.488281 34.886719 C 36.316406 34.902344 36.148438 34.914062 35.976562 34.925781 C 35.636719 34.953125 35.304688 34.976562 34.980469 35 C 34.65625 35.023438 34.34375 35.046875 34.046875 35.066406 C 33.75 35.082031 33.472656 35.097656 33.214844 35.113281 C 32.695312 35.144531 32.265625 35.175781 31.960938 35.1875 C 31.660156 35.199219 31.488281 35.207031 31.488281 35.207031 C 31.488281 35.207031 31.582031 35.359375 31.746094 35.621094 C 31.910156 35.882812 32.148438 36.261719 32.433594 36.707031 C 33.007812 37.601562 33.78125 38.792969 34.574219 39.984375 C 35.367188 41.164062 36.179688 42.34375 36.796875 43.226562 C 37.109375 43.667969 37.367188 44.03125 37.546875 44.289062 C 37.730469 44.542969 37.835938 44.691406 37.835938 44.691406 " fill-opacity="1" fill-rule="nonzero"/></g></g></g><g clip-path="url(#32e4706a8d)"><g clip-path="url(#9365653a7b)"><g clip-path="url(#9e613feaac)"><path fill="#ed001b" d="M 51.410156 43.011719 C 51.410156 43.011719 51.476562 42.84375 51.589844 42.550781 C 51.703125 42.261719 51.867188 41.839844 52.058594 41.335938 C 52.25 40.835938 52.472656 40.25 52.707031 39.621094 C 52.941406 38.992188 53.1875 38.328125 53.429688 37.652344 C 53.914062 36.308594 54.382812 34.96875 54.722656 33.960938 C 55.066406 32.949219 55.289062 32.277344 55.289062 32.277344 C 55.289062 32.277344 55.117188 32.3125 54.820312 32.371094 C 54.667969 32.398438 54.488281 32.433594 54.28125 32.472656 C 54.074219 32.511719 53.839844 32.554688 53.582031 32.601562 C 52.558594 32.792969 51.191406 33.03125 49.824219 33.253906 C 49.480469 33.308594 49.136719 33.363281 48.800781 33.417969 C 48.632812 33.445312 48.464844 33.472656 48.300781 33.5 C 48.136719 33.523438 47.972656 33.546875 47.8125 33.570312 C 47.167969 33.664062 46.566406 33.757812 46.054688 33.828125 C 45.023438 33.96875 44.335938 34.058594 44.335938 34.058594 C 44.335938 34.058594 44.757812 34.625 45.402344 35.472656 C 45.722656 35.898438 46.101562 36.390625 46.507812 36.921875 C 46.917969 37.449219 47.355469 38.007812 47.796875 38.566406 C 48.238281 39.125 48.683594 39.683594 49.105469 40.207031 C 49.527344 40.730469 49.921875 41.214844 50.265625 41.628906 C 50.945312 42.457031 51.410156 43.011719 51.410156 43.011719 " fill-opacity="1" fill-rule="nonzero"/></g></g></g><g clip-path="url(#72626a7293)"><g clip-path="url(#471a92689c)"><g clip-path="url(#dd61694134)"><g clip-path="url(#b3b1b47c77)"><path fill="#221e1a" d="M 64.796875 40.335938 C 64.796875 40.335938 65.011719 39.648438 65.320312 38.617188 C 65.632812 37.589844 66.039062 36.222656 66.425781 34.84375 C 66.816406 33.472656 67.1875 32.105469 67.460938 31.070312 C 67.730469 30.039062 67.90625 29.355469 67.90625 29.355469 C 67.90625 29.355469 67.738281 29.398438 67.445312 29.476562 C 67.296875 29.515625 67.117188 29.5625 66.914062 29.617188 C 66.707031 29.671875 66.476562 29.734375 66.226562 29.796875 C 65.71875 29.925781 65.132812 30.078125 64.5 30.238281 C 63.867188 30.390625 63.191406 30.554688 62.515625 30.71875 C 61.839844 30.875 61.164062 31.03125 60.527344 31.179688 C 59.890625 31.316406 59.296875 31.449219 58.789062 31.558594 C 58.28125 31.675781 57.855469 31.757812 57.558594 31.820312 C 57.261719 31.882812 57.089844 31.917969 57.089844 31.917969 C 57.089844 31.917969 57.554688 32.453125 58.257812 33.253906 C 58.433594 33.453125 58.628906 33.667969 58.828125 33.898438 C 59.03125 34.125 59.25 34.363281 59.46875 34.613281 C 59.914062 35.109375 60.394531 35.636719 60.875 36.160156 C 61.117188 36.425781 61.359375 36.6875 61.597656 36.949219 C 61.835938 37.203125 62.070312 37.457031 62.300781 37.703125 C 62.757812 38.191406 63.1875 38.648438 63.554688 39.035156 C 63.929688 39.425781 64.238281 39.75 64.453125 39.976562 C 64.671875 40.203125 64.796875 40.335938 64.796875 40.335938 " fill-opacity="1" fill-rule="nonzero"/></g></g></g></g><g clip-path="url(#3597200f7f)"><g clip-path="url(#c65d708ea8)"><g clip-path="url(#b7d0c9de2f)"><path fill="#52b3ec" d="M 77.949219 36.730469 C 77.949219 36.730469 78.113281 36.03125 78.355469 34.984375 C 78.476562 34.460938 78.613281 33.851562 78.757812 33.199219 C 78.902344 32.542969 79.050781 31.84375 79.199219 31.144531 C 79.347656 30.449219 79.492188 29.75 79.625 29.097656 C 79.753906 28.445312 79.875 27.832031 79.972656 27.308594 C 80.175781 26.261719 80.304688 25.566406 80.304688 25.566406 C 80.304688 25.566406 79.644531 25.789062 78.65625 26.125 C 78.160156 26.289062 77.582031 26.476562 76.964844 26.679688 C 76.652344 26.78125 76.332031 26.878906 76.003906 26.984375 C 75.679688 27.085938 75.347656 27.191406 75.015625 27.292969 C 73.6875 27.707031 72.355469 28.105469 71.351562 28.390625 C 71.101562 28.464844 70.875 28.53125 70.667969 28.589844 C 70.464844 28.648438 70.289062 28.699219 70.140625 28.738281 C 69.847656 28.820312 69.679688 28.867188 69.679688 28.867188 C 69.679688 28.867188 70.179688 29.367188 70.941406 30.117188 C 71.699219 30.863281 72.71875 31.855469 73.753906 32.839844 C 73.882812 32.964844 74.011719 33.085938 74.140625 33.210938 C 74.269531 33.332031 74.398438 33.453125 74.523438 33.574219 C 74.78125 33.8125 75.035156 34.050781 75.277344 34.277344 C 75.765625 34.734375 76.226562 35.160156 76.625 35.523438 C 77.019531 35.886719 77.351562 36.191406 77.582031 36.402344 C 77.816406 36.613281 77.949219 36.730469 77.949219 36.730469 " fill-opacity="1" fill-rule="nonzero"/></g></g></g><g clip-path="url(#cc43bb8c64)"><g clip-path="url(#95fe3be5a2)"><g clip-path="url(#ca0aaa0ee7)"><path fill="#ed001b" d="M 90.820312 32.253906 C 90.820312 32.253906 90.941406 31.542969 91.109375 30.484375 C 91.195312 29.953125 91.292969 29.339844 91.390625 28.671875 C 91.492188 28.007812 91.59375 27.300781 91.695312 26.597656 C 91.796875 25.890625 91.894531 25.1875 91.980469 24.523438 C 92.066406 23.863281 92.144531 23.246094 92.210938 22.714844 C 92.339844 21.660156 92.421875 20.957031 92.421875 20.957031 C 92.421875 20.957031 91.78125 21.222656 90.816406 21.621094 C 90.335938 21.820312 89.769531 22.042969 89.164062 22.289062 C 89.011719 22.347656 88.859375 22.410156 88.703125 22.472656 C 88.546875 22.535156 88.390625 22.59375 88.230469 22.65625 C 87.910156 22.78125 87.585938 22.90625 87.261719 23.03125 C 87.101562 23.097656 86.9375 23.160156 86.777344 23.222656 C 86.613281 23.285156 86.453125 23.34375 86.292969 23.40625 C 85.972656 23.523438 85.65625 23.644531 85.351562 23.757812 C 84.742188 23.992188 84.171875 24.195312 83.679688 24.375 C 83.191406 24.550781 82.78125 24.703125 82.496094 24.804688 C 82.207031 24.902344 82.042969 24.960938 82.042969 24.960938 C 82.042969 24.960938 82.175781 25.078125 82.410156 25.28125 C 82.644531 25.484375 82.980469 25.78125 83.382812 26.125 C 84.191406 26.816406 85.273438 27.738281 86.375 28.652344 C 87.46875 29.5625 88.578125 30.464844 89.417969 31.136719 C 89.839844 31.476562 90.1875 31.753906 90.433594 31.945312 C 90.679688 32.140625 90.820312 32.253906 90.820312 32.253906 " fill-opacity="1" fill-rule="nonzero"/></g></g></g><g clip-path="url(#331274c8c7)"><g clip-path="url(#d049cb6eab)"><g clip-path="url(#9eb18412ec)"><path fill="#221e1a" d="M 103.367188 26.917969 C 103.367188 26.917969 103.4375 26.203125 103.535156 25.132812 C 103.632812 24.066406 103.75 22.636719 103.855469 21.214844 C 103.882812 20.859375 103.90625 20.503906 103.929688 20.15625 C 103.945312 19.980469 103.957031 19.808594 103.96875 19.636719 C 103.980469 19.464844 103.988281 19.296875 104 19.128906 C 104.039062 18.460938 104.078125 17.839844 104.105469 17.308594 C 104.164062 16.246094 104.199219 15.539062 104.199219 15.539062 C 104.199219 15.539062 103.574219 15.847656 102.640625 16.3125 C 101.703125 16.769531 100.453125 17.375 99.191406 17.960938 C 98.566406 18.257812 97.929688 18.542969 97.335938 18.8125 C 97.039062 18.945312 96.753906 19.078125 96.480469 19.199219 C 96.207031 19.320312 95.949219 19.433594 95.710938 19.539062 C 95.234375 19.75 94.835938 19.925781 94.558594 20.046875 C 94.277344 20.167969 94.117188 20.234375 94.117188 20.234375 C 94.117188 20.234375 94.257812 20.34375 94.507812 20.53125 C 94.753906 20.71875 95.109375 20.988281 95.53125 21.304688 C 96.382812 21.941406 97.527344 22.789062 98.6875 23.625 C 99.839844 24.457031 101.007812 25.285156 101.890625 25.902344 C 102.332031 26.210938 102.699219 26.460938 102.960938 26.640625 C 103.21875 26.816406 103.367188 26.917969 103.367188 26.917969 " fill-opacity="1" fill-rule="nonzero"/></g></g></g><g clip-path="url(#964882285e)"><g clip-path="url(#1cc170870b)"><g clip-path="url(#797140123f)"><path fill="#52b3ec" d="M 115.523438 20.734375 C 115.523438 20.734375 115.546875 20.011719 115.570312 18.941406 C 115.574219 18.671875 115.582031 18.382812 115.589844 18.074219 C 115.59375 17.765625 115.597656 17.441406 115.601562 17.105469 C 115.609375 16.4375 115.613281 15.722656 115.617188 15.007812 C 115.625 13.585938 115.605469 12.15625 115.589844 11.09375 C 115.578125 10.5625 115.570312 10.121094 115.566406 9.8125 C 115.558594 9.503906 115.554688 9.324219 115.554688 9.324219 C 115.554688 9.324219 114.957031 9.675781 114.058594 10.203125 C 113.945312 10.269531 113.828125 10.335938 113.707031 10.410156 C 113.585938 10.476562 113.460938 10.550781 113.332031 10.625 C 113.074219 10.773438 112.800781 10.929688 112.515625 11.089844 C 112.375 11.167969 112.230469 11.25 112.085938 11.335938 C 111.941406 11.417969 111.792969 11.5 111.644531 11.585938 C 111.34375 11.75 111.042969 11.917969 110.738281 12.085938 C 110.433594 12.253906 110.132812 12.425781 109.832031 12.585938 C 109.53125 12.75 109.234375 12.910156 108.949219 13.066406 C 108.660156 13.21875 108.386719 13.367188 108.121094 13.511719 C 107.859375 13.648438 107.609375 13.78125 107.378906 13.902344 C 106.917969 14.144531 106.53125 14.347656 106.261719 14.488281 C 105.992188 14.625 105.835938 14.703125 105.835938 14.703125 C 105.835938 14.703125 105.984375 14.800781 106.246094 14.972656 C 106.503906 15.144531 106.875 15.386719 107.320312 15.675781 C 108.214844 16.25 109.414062 17.019531 110.625 17.773438 C 111.835938 18.523438 113.058594 19.269531 113.984375 19.820312 C 114.90625 20.371094 115.523438 20.734375 115.523438 20.734375 " fill-opacity="1" fill-rule="nonzero"/></g></g></g><g clip-path="url(#d0913717dc)"><g clip-path="url(#a3ae0d7ddb)"><g clip-path="url(#6105c677b2)"><path fill="#ed001b" d="M 127.226562 13.683594 C 127.226562 13.683594 127.199219 12.964844 127.144531 11.894531 C 127.089844 10.820312 127 9.390625 126.898438 7.96875 C 126.847656 7.261719 126.792969 6.546875 126.738281 5.882812 C 126.679688 5.21875 126.625 4.597656 126.578125 4.070312 C 126.527344 3.542969 126.484375 3.101562 126.457031 2.792969 C 126.425781 2.484375 126.40625 2.308594 126.40625 2.308594 C 126.40625 2.308594 126.371094 2.332031 126.304688 2.378906 C 126.238281 2.425781 126.140625 2.496094 126.015625 2.582031 C 125.769531 2.753906 125.410156 3 124.984375 3.292969 C 124.769531 3.441406 124.539062 3.601562 124.292969 3.765625 C 124.046875 3.933594 123.785156 4.109375 123.515625 4.289062 C 123.246094 4.472656 122.96875 4.660156 122.683594 4.847656 C 122.398438 5.035156 122.109375 5.222656 121.820312 5.414062 C 121.527344 5.605469 121.238281 5.792969 120.953125 5.980469 C 120.664062 6.164062 120.382812 6.34375 120.109375 6.519531 C 119.832031 6.691406 119.570312 6.863281 119.316406 7.023438 C 119.066406 7.183594 118.824219 7.328125 118.605469 7.464844 C 118.164062 7.738281 117.792969 7.96875 117.535156 8.128906 C 117.40625 8.207031 117.304688 8.269531 117.238281 8.3125 C 117.167969 8.355469 117.128906 8.375 117.128906 8.375 C 117.128906 8.375 117.285156 8.464844 117.554688 8.617188 C 117.824219 8.765625 118.214844 8.980469 118.675781 9.238281 C 119.144531 9.492188 119.6875 9.792969 120.277344 10.109375 C 120.863281 10.425781 121.492188 10.761719 122.125 11.09375 C 123.382812 11.753906 124.660156 12.410156 125.621094 12.890625 C 126.582031 13.371094 127.226562 13.683594 127.226562 13.683594 " fill-opacity="1" fill-rule="nonzero"/></g></g></g></svg>