<svg xmlns="http://www.w3.org/2000/svg" xmlns:xlink="http://www.w3.org/1999/xlink" width="406" zoomAndPan="magnify" viewBox="0 0 304.5 34.499999" height="46" preserveAspectRatio="xMidYMid meet" version="1.0"><defs><clipPath id="a22f963304"><path d="M 5 0 L 302 0 L 302 34.007812 L 5 34.007812 Z M 5 0 " clip-rule="nonzero"/></clipPath><clipPath id="c8f26d71db"><path d="M 28 29 L 33 29 L 33 34.007812 L 28 34.007812 Z M 28 29 " clip-rule="nonzero"/></clipPath><clipPath id="a78bd15bf7"><path d="M 57 33 L 63 33 L 63 34.007812 L 57 34.007812 Z M 57 33 " clip-rule="nonzero"/></clipPath><clipPath id="0344e4f7d4"><path d="M 11 30 L 17 30 L 17 34.007812 L 11 34.007812 Z M 11 30 " clip-rule="nonzero"/></clipPath><clipPath id="3c33099358"><path d="M 286 30 L 291 30 L 291 34.007812 L 286 34.007812 Z M 286 30 " clip-rule="nonzero"/></clipPath><clipPath id="cbf29b8f48"><path d="M 35 33 L 40 33 L 40 34.007812 L 35 34.007812 Z M 35 33 " clip-rule="nonzero"/></clipPath></defs><g clip-path="url(#a22f963304)"><path fill="#fbdeab" d="M 285.253906 8.164062 C 274.160156 4.628906 262.222656 2.945312 250.609375 2.441406 C 246.316406 2.253906 242.019531 2.269531 237.726562 2.464844 C 224.941406 0.488281 211.6875 0.605469 198.847656 0.511719 C 173.902344 0.324219 148.953125 0.03125 124.007812 0 C 111.464844 -0.015625 98.921875 0.0820312 86.386719 0.457031 C 74.546875 0.8125 62.636719 1.214844 50.859375 2.550781 C 40.125 3.773438 29.425781 5.96875 19.667969 10.734375 C 11.636719 14.660156 1.921875 22.054688 6.265625 32.171875 C 10.179688 41.292969 21.847656 45.628906 30.757812 47.96875 C 41.109375 50.683594 51.921875 51.128906 62.574219 51.257812 C 73.371094 51.390625 84.511719 50.800781 95.207031 52.558594 C 97.804688 52.984375 100.417969 53.628906 102.738281 54.898438 C 105.183594 56.238281 107.210938 58.144531 109.308594 59.945312 C 113.011719 63.117188 117.058594 65.789062 121.535156 67.753906 C 140.546875 76.089844 162.054688 72.90625 181.335938 67.3125 C 192.613281 64.039062 203.667969 60.015625 215.0625 57.128906 C 220.792969 55.675781 226.589844 54.570312 232.46875 53.894531 C 238.53125 53.195312 244.621094 52.757812 250.671875 51.933594 C 262.351562 50.34375 273.527344 46.644531 284.425781 42.261719 C 291.933594 39.238281 301.449219 34.089844 301.773438 24.910156 C 302.097656 15.738281 292.867188 10.589844 285.253906 8.164062 Z M 285.253906 8.164062 " fill-opacity="1" fill-rule="nonzero"/></g><path fill="#f7a876" d="M 49.292969 23.644531 C 46.449219 23.644531 46.445312 28.039062 49.292969 28.039062 C 52.132812 28.039062 52.136719 23.644531 49.292969 23.644531 Z M 49.292969 23.644531 " fill-opacity="1" fill-rule="nonzero"/><g clip-path="url(#c8f26d71db)"><path fill="#f7a876" d="M 30.523438 29.871094 C 27.679688 29.871094 27.675781 34.265625 30.523438 34.265625 C 33.363281 34.265625 33.367188 29.871094 30.523438 29.871094 Z M 30.523438 29.871094 " fill-opacity="1" fill-rule="nonzero"/></g><path fill="#f7a876" d="M 33.464844 14.492188 C 30.625 14.492188 30.621094 18.886719 33.464844 18.886719 C 36.308594 18.886719 36.3125 14.492188 33.464844 14.492188 Z M 33.464844 14.492188 " fill-opacity="1" fill-rule="nonzero"/><path fill="#f7a876" d="M 38.25 21.449219 C 35.410156 21.449219 35.402344 25.84375 38.25 25.84375 C 41.09375 25.84375 41.097656 21.449219 38.25 21.449219 Z M 38.25 21.449219 " fill-opacity="1" fill-rule="nonzero"/><path fill="#f7a876" d="M 25.738281 24.011719 C 22.894531 24.011719 22.890625 28.40625 25.738281 28.40625 C 28.578125 28.40625 28.582031 24.011719 25.738281 24.011719 Z M 25.738281 24.011719 " fill-opacity="1" fill-rule="nonzero"/><g clip-path="url(#a78bd15bf7)"><path fill="#f7a876" d="M 59.964844 33.898438 C 57.121094 33.898438 57.117188 38.292969 59.964844 38.292969 C 62.804688 38.292969 62.8125 33.898438 59.964844 33.898438 Z M 59.964844 33.898438 " fill-opacity="1" fill-rule="nonzero"/></g><g clip-path="url(#0344e4f7d4)"><path fill="#f7a876" d="M 13.882812 30.96875 C 11.042969 30.96875 11.039062 35.363281 13.882812 35.363281 C 16.726562 35.363281 16.730469 30.96875 13.882812 30.96875 Z M 13.882812 30.96875 " fill-opacity="1" fill-rule="nonzero"/></g><path fill="#f7a876" d="M 20.585938 29.503906 C 17.742188 29.503906 17.738281 33.898438 20.585938 33.898438 C 23.425781 33.898438 23.429688 29.503906 20.585938 29.503906 Z M 20.585938 29.503906 " fill-opacity="1" fill-rule="nonzero"/><path fill="#f7a876" d="M 13.589844 21.816406 C 10.75 21.816406 10.746094 26.207031 13.589844 26.207031 C 16.433594 26.210938 16.4375 21.816406 13.589844 21.816406 Z M 13.589844 21.816406 " fill-opacity="1" fill-rule="nonzero"/><path fill="#f7a876" d="M 65.484375 19.984375 C 62.644531 19.984375 62.636719 24.378906 65.484375 24.378906 C 68.328125 24.378906 68.332031 19.984375 65.484375 19.984375 Z M 65.484375 19.984375 " fill-opacity="1" fill-rule="nonzero"/><g clip-path="url(#3c33099358)"><path fill="#f7a876" d="M 288.515625 30.601562 C 285.675781 30.601562 285.667969 34.996094 288.515625 34.996094 C 291.359375 34.996094 291.363281 30.601562 288.515625 30.601562 Z M 288.515625 30.601562 " fill-opacity="1" fill-rule="nonzero"/></g><g clip-path="url(#cbf29b8f48)"><path fill="#f7a876" d="M 37.515625 33.164062 C 34.671875 33.164062 34.667969 37.558594 37.515625 37.558594 C 40.355469 37.558594 40.359375 33.164062 37.515625 33.164062 Z M 37.515625 33.164062 " fill-opacity="1" fill-rule="nonzero"/></g></svg>