<svg xmlns="http://www.w3.org/2000/svg" xmlns:xlink="http://www.w3.org/1999/xlink" width="241" zoomAndPan="magnify" viewBox="0 0 180.75 87.749997" height="117" preserveAspectRatio="xMidYMid meet" version="1.0"><defs><g/><clipPath id="37fe55e176"><path d="M 0.132812 16 L 83 16 L 83 75 L 0.132812 75 Z M 0.132812 16 " clip-rule="nonzero"/></clipPath><clipPath id="04f56336f1"><path d="M 0.132812 0 L 52 0 L 52 45 L 0.132812 45 Z M 0.132812 0 " clip-rule="nonzero"/></clipPath><clipPath id="0e2fb51573"><path d="M 126 0 L 180.367188 0 L 180.367188 45 L 126 45 Z M 126 0 " clip-rule="nonzero"/></clipPath><clipPath id="f36119f2ff"><path d="M 137 0 L 180.367188 0 L 180.367188 45 L 137 45 Z M 137 0 " clip-rule="nonzero"/></clipPath><clipPath id="90395ee082"><path d="M 114 16 L 180.367188 16 L 180.367188 75 L 114 75 Z M 114 16 " clip-rule="nonzero"/></clipPath></defs><path stroke-linecap="butt" transform="matrix(0.747869, 0, 0, 0.747869, 65.329287, 21.024099)" fill="none" stroke-linejoin="miter" d="M 39.924375 24.229412 C 39.924375 18.353343 34.769104 15.605954 29.451915 15.605954 C 23.628078 15.605954 17.532636 18.912222 17.532636 25.242707 C 17.532636 28.371387 19.376415 30.617351 19.935295 31.176231 C 20.264355 31.515737 20.771002 31.954483 21.387337 31.954483 C 22.400632 31.954483 22.79237 31.014312 22.79237 30.22039 C 22.79237 29.833876 22.724469 29.436914 22.452864 29.165309 C 21.893984 28.428842 20.374041 27.540903 20.374041 24.286867 C 20.374041 20.813457 24.860746 18.515261 28.443842 18.515261 C 30.846502 18.515261 32.873093 19.580788 32.873093 21.988671 C 32.873093 24.897978 30.068249 31.73511 28.276701 34.64964 C 27.660367 35.605481 26.991801 35.715168 26.485153 35.715168 C 25.978505 35.715168 25.581544 35.553249 25.257707 35.553249 C 24.860746 35.553249 24.693605 35.824854 24.693605 36.096459 C 24.693605 36.728463 25.759132 37.161986 25.759132 38.520011 C 25.759132 38.734161 25.759132 39.07889 25.638999 39.350495 C 22.113358 45.341474 17.694554 51.562272 15.506045 55.307287 C 15.109084 55.991522 14.894933 56.550402 14.894933 56.931693 C 14.894933 57.783071 15.793319 58.054675 17.407279 58.054675 C 19.595789 58.054675 23.178885 57.548028 27.55068 57.548028 C 33.087243 57.548028 35.113833 58.274049 36.001773 58.274049 C 36.560652 58.274049 37.015068 58.054675 37.015068 57.657714 L 37.015068 57.605483 C 37.015068 56.101209 38.242514 49.713269 38.242514 48.141094 C 38.242514 47.52476 37.683634 47.075567 37.124755 47.075567 C 36.618107 47.075567 36.111459 47.472528 36.001773 48.428369 C 35.385438 54.419348 32.147072 54.86854 29.289996 54.86854 C 27.373092 54.86854 26.704526 54.86854 26.03596 55.035682 C 28.945267 50.496745 31.912029 46.187628 33.813264 42.823905 C 34.377366 42.207571 34.936246 42.045652 35.385438 42.045652 C 35.892086 42.045652 36.236816 42.207571 36.560652 42.207571 C 36.957613 42.207571 37.124755 41.920296 37.124755 41.648691 C 37.124755 41.089812 36.059228 40.583164 36.059228 39.298264 C 36.059228 39.07889 36.059228 38.734161 36.179361 38.446887 C 38.749161 33.255053 39.924375 28.987722 39.924375 24.229412 Z M 69.659895 27.86474 C 67.868347 20.197123 63.997976 15.997692 56.72732 15.997692 C 53.593417 15.997692 45.748212 16.958756 44.515544 26.470153 C 44.014119 28.548975 42.165116 27.760276 42.165116 28.768348 C 42.165116 29.656288 43.904432 29.222764 44.572999 31.014312 C 45.131878 34.362366 47.142799 40.812984 54.826086 40.812984 C 54.826086 40.812984 60.52979 40.812984 61.992278 35.265975 C 62.154196 36.16436 62.316115 37.955908 62.316115 40.128748 C 62.316115 46.694276 60.310417 56.71232 53.415829 56.71232 C 52.130929 56.71232 47.591992 56.210896 47.268155 49.603583 C 47.268155 49.044703 46.871194 48.757429 46.364547 48.757429 C 45.638526 48.757429 44.682685 49.425995 44.515544 50.945938 C 45.586294 58.561323 50.793797 59.010516 53.201679 59.010516 C 66.47376 59.010516 70.218775 45.012414 70.218775 32.638719 C 70.673191 30.77927 72.355052 31.338149 72.355052 30.45021 L 72.355052 30.340523 C 72.297597 29.384683 70.385916 30.110704 69.659895 27.86474 Z M 55.384965 38.681929 C 51.572049 38.681929 51.352676 30.956858 51.352676 28.768348 C 51.352676 25.352394 51.629504 18.353343 55.494652 18.353343 C 59.406808 18.353343 60.033589 26.579839 60.033589 28.825803 C 60.033589 33.813933 58.628555 38.681929 55.384965 38.681929 Z M 55.384965 38.681929 " stroke="#ffffff" stroke-width="4.2" stroke-opacity="1" stroke-miterlimit="4"/><g fill="#d60000" fill-opacity="1"><g transform="translate(76.886204, 64.400516)"><g><path d="M 18.296875 -25.25 C 18.296875 -29.640625 14.453125 -31.703125 10.46875 -31.703125 C 6.109375 -31.703125 1.546875 -29.234375 1.546875 -24.5 C 1.546875 -22.15625 2.9375 -20.484375 3.34375 -20.0625 C 3.59375 -19.8125 3.984375 -19.46875 4.4375 -19.46875 C 5.1875 -19.46875 5.484375 -20.1875 5.484375 -20.765625 C 5.484375 -21.0625 5.4375 -21.359375 5.234375 -21.5625 C 4.8125 -22.109375 3.6875 -22.78125 3.6875 -25.203125 C 3.6875 -27.8125 7.03125 -29.515625 9.71875 -29.515625 C 11.515625 -29.515625 13.015625 -28.71875 13.015625 -26.921875 C 13.015625 -24.75 10.921875 -19.640625 9.59375 -17.46875 C 9.125 -16.75 8.625 -16.671875 8.25 -16.671875 C 7.875 -16.671875 7.578125 -16.796875 7.328125 -16.796875 C 7.03125 -16.796875 6.90625 -16.578125 6.90625 -16.375 C 6.90625 -15.90625 7.703125 -15.578125 7.703125 -14.578125 C 7.703125 -14.40625 7.703125 -14.15625 7.625 -13.9375 C 4.984375 -9.46875 1.671875 -4.8125 0.046875 -2.015625 C -0.25 -1.5 -0.421875 -1.09375 -0.421875 -0.796875 C -0.421875 -0.171875 0.25 0.046875 1.46875 0.046875 C 3.09375 0.046875 5.78125 -0.328125 9.046875 -0.328125 C 13.1875 -0.328125 14.703125 0.203125 15.375 0.203125 C 15.78125 0.203125 16.125 0.046875 16.125 -0.25 L 16.125 -0.296875 C 16.125 -1.421875 17.046875 -6.203125 17.046875 -7.375 C 17.046875 -7.828125 16.625 -8.171875 16.203125 -8.171875 C 15.828125 -8.171875 15.453125 -7.875 15.375 -7.15625 C 14.90625 -2.6875 12.484375 -2.34375 10.34375 -2.34375 C 8.921875 -2.34375 8.421875 -2.34375 7.921875 -2.21875 C 10.09375 -5.609375 12.3125 -8.828125 13.734375 -11.34375 C 14.15625 -11.8125 14.578125 -11.9375 14.90625 -11.9375 C 15.28125 -11.9375 15.53125 -11.8125 15.78125 -11.8125 C 16.078125 -11.8125 16.203125 -12.015625 16.203125 -12.234375 C 16.203125 -12.640625 15.40625 -13.015625 15.40625 -13.984375 C 15.40625 -14.15625 15.40625 -14.40625 15.5 -14.609375 C 17.421875 -18.515625 18.296875 -21.6875 18.296875 -25.25 Z M 18.296875 -25.25 "/></g></g></g><g fill="#d60000" fill-opacity="1"><g transform="translate(96.025671, 64.400516)"><g><path d="M 21.390625 -22.53125 C 20.0625 -28.265625 17.171875 -31.40625 11.71875 -31.40625 C 9.375 -31.40625 3.515625 -30.6875 2.59375 -23.578125 C 2.21875 -22.03125 0.84375 -22.609375 0.84375 -21.859375 C 0.84375 -21.1875 2.140625 -21.53125 2.640625 -20.1875 C 3.0625 -17.671875 4.5625 -12.859375 10.296875 -12.859375 C 10.296875 -12.859375 14.578125 -12.859375 15.65625 -17 C 15.78125 -16.328125 15.90625 -14.984375 15.90625 -13.359375 C 15.90625 -8.453125 14.40625 -0.96875 9.25 -0.96875 C 8.296875 -0.96875 4.90625 -1.34375 4.640625 -6.28125 C 4.640625 -6.703125 4.359375 -6.90625 3.984375 -6.90625 C 3.4375 -6.90625 2.71875 -6.40625 2.59375 -5.28125 C 3.390625 0.421875 7.28125 0.75 9.09375 0.75 C 19.015625 0.75 21.8125 -9.71875 21.8125 -18.96875 C 22.15625 -20.34375 23.40625 -19.9375 23.40625 -20.609375 L 23.40625 -20.6875 C 23.359375 -21.390625 21.9375 -20.859375 21.390625 -22.53125 Z M 10.71875 -14.453125 C 7.875 -14.453125 7.703125 -20.21875 7.703125 -21.859375 C 7.703125 -24.40625 7.921875 -29.640625 10.796875 -29.640625 C 13.734375 -29.640625 14.203125 -23.484375 14.203125 -21.8125 C 14.203125 -18.09375 13.15625 -14.453125 10.71875 -14.453125 Z M 10.71875 -14.453125 "/></g></g></g><g clip-path="url(#37fe55e176)"><path stroke-linecap="butt" transform="matrix(0.747869, 0, 0, 0.747869, 3.32301, 34.640149)" fill="none" stroke-linejoin="miter" d="M 13.691551 21.702917 C 13.691551 21.917067 13.022985 22.021531 11.685853 22.021531 L 10.49497 21.958853 C 9.784618 21.901398 9.429443 21.796934 9.429443 21.655909 L 9.429443 7.344417 C 9.429443 7.104151 10.134571 6.984018 11.555274 6.984018 C 12.9812 6.984018 13.691551 7.104151 13.691551 7.344417 L 13.691551 12.807855 L 16.297914 7.344417 C 16.391931 7.145936 16.961257 7.046696 18.000669 7.046696 C 19.891457 7.046696 20.889083 7.213837 20.988323 7.537674 C 20.988323 7.569013 20.9831 7.595129 20.96743 7.621245 L 17.253755 14.317352 L 21.562872 20.271768 C 21.562872 20.297884 21.42707 20.418017 21.160688 20.63739 C 20.502568 21.206716 19.734762 21.650686 18.852046 21.979745 C 18.580441 22.078986 18.314059 22.131217 18.047677 22.131217 L 17.530583 22.084209 C 17.076167 21.974522 16.720991 21.682025 16.459833 21.206716 L 14.036281 16.563316 L 13.691551 16.563316 Z M 32.67256 22.042423 C 31.439891 22.042423 30.771325 21.843943 30.672085 21.446982 L 29.966956 18.69437 L 26.571894 18.69437 L 25.95556 21.337295 C 25.871989 21.781265 25.187754 22.000638 23.902853 22.000638 C 23.223841 22.000638 22.722416 21.964076 22.388133 21.885728 C 22.064297 21.807381 21.902378 21.744703 21.902378 21.702917 L 25.673509 7.260846 C 25.673509 7.145936 26.650242 7.088481 28.598485 7.088481 C 30.546728 7.088481 31.523462 7.145936 31.523462 7.260846 L 35.211021 21.72381 C 35.211021 21.82305 34.887185 21.901398 34.234288 21.958853 C 33.581391 22.016308 33.059074 22.042423 32.67256 22.042423 Z M 27.109881 15.983544 L 29.345399 15.983544 L 28.389558 11.569963 L 28.258979 11.569963 Z M 51.549104 22.021531 C 50.285097 22.021531 49.647869 21.880505 49.647869 21.593231 L 49.2039 13.042898 L 46.60276 21.702917 C 46.545305 21.875282 46.05955 21.958853 45.150718 21.958853 C 44.241886 21.958853 43.771801 21.880505 43.745685 21.72381 L 41.055751 12.954104 L 40.752807 21.467875 C 40.742361 21.682025 40.470756 21.828273 39.943215 21.906621 C 39.420898 21.984969 38.982152 22.021531 38.637422 22.021531 C 38.28747 22.021531 37.947964 22.000638 37.618904 21.958853 C 36.939891 21.859612 36.605608 21.676801 36.621278 21.420866 L 37.112256 7.558567 C 37.112256 7.21906 37.979303 7.046696 39.713396 7.046696 C 40.225267 7.046696 40.846824 7.088481 41.588515 7.166829 C 42.330205 7.245176 42.742836 7.396648 42.826406 7.621245 L 45.213396 14.343468 L 47.307888 7.600352 C 47.433244 7.23473 48.415201 7.046696 50.248534 7.046696 C 50.776075 7.046696 51.408079 7.088481 52.139323 7.166829 C 52.870567 7.245176 53.236189 7.380979 53.236189 7.579459 L 53.852523 21.572338 C 53.852523 21.729033 53.575695 21.843943 53.016816 21.917067 C 52.468383 21.984969 51.977404 22.021531 51.549104 22.021531 Z M 57.372941 18.328748 L 57.372941 10.734255 L 55.858221 10.734255 C 55.617955 10.734255 55.445591 10.431311 55.34635 9.8202 C 55.304565 9.522479 55.283672 9.214312 55.283672 8.900922 C 55.283672 8.592755 55.304565 8.284588 55.34635 7.986867 C 55.445591 7.375756 55.617955 7.067588 55.858221 7.067588 L 63.024414 7.067588 C 63.26468 7.067588 63.426598 7.375756 63.515392 7.986867 C 63.572847 8.284588 63.598963 8.592755 63.598963 8.900922 C 63.598963 9.214312 63.572847 9.522479 63.515392 9.8202 C 63.426598 10.431311 63.26468 10.734255 63.024414 10.734255 L 61.593265 10.734255 L 61.593265 18.328748 L 63.087092 18.328748 C 63.327358 18.328748 63.499722 18.636915 63.598963 19.248026 C 63.656418 19.55097 63.687757 19.853914 63.687757 20.167305 C 63.687757 20.480695 63.656418 20.783639 63.598963 21.08136 C 63.499722 21.692471 63.327358 22.000638 63.087092 22.000638 L 55.900007 22.000638 C 55.659741 22.000638 55.492599 21.692471 55.409029 21.08136 C 55.351574 20.783639 55.325458 20.480695 55.325458 20.167305 C 55.325458 19.853914 55.351574 19.55097 55.409029 19.248026 C 55.492599 18.636915 55.659741 18.328748 55.900007 18.328748 Z M 65.667339 16.798358 C 65.938944 17.007285 66.403806 17.299783 67.061926 17.670628 C 67.725269 18.041474 68.357273 18.224285 68.963161 18.224285 C 69.569049 18.224285 69.866769 17.989242 69.866769 17.519156 C 69.866769 17.305006 69.783199 17.116972 69.616057 16.955054 C 69.443693 16.793135 69.130302 16.605101 68.675886 16.390951 C 68.22147 16.176801 67.881964 16.009659 67.652144 15.889527 C 67.427548 15.769394 67.124604 15.570913 66.743312 15.294085 C 66.372467 15.017257 66.07997 14.724759 65.881489 14.427038 C 65.312163 13.617447 65.024889 12.583258 65.024889 11.33492 C 65.024889 10.086582 65.489751 9.031501 66.419476 8.169678 C 67.354424 7.307854 68.576646 6.879554 70.08092 6.879554 C 71.104661 6.879554 72.055279 6.989241 72.922325 7.208614 C 73.789372 7.427987 74.238565 7.715262 74.264681 8.070438 C 74.264681 8.117446 74.264681 8.159232 74.264681 8.201017 C 74.264681 8.697218 74.107985 9.329222 73.794595 10.091805 C 73.481205 10.849165 73.261831 11.272242 73.136475 11.355813 C 72.22242 10.885727 71.412828 10.650685 70.692031 10.650685 C 69.971233 10.650685 69.616057 10.90662 69.616057 11.418491 C 69.616057 11.731881 69.877216 12.008709 70.404756 12.248975 C 70.514443 12.311653 70.676361 12.390001 70.890511 12.489241 C 71.104661 12.588482 71.35015 12.703391 71.626979 12.839194 C 71.90903 12.974996 72.206751 13.147361 72.525364 13.351065 C 72.843978 13.554768 73.188707 13.831597 73.559552 14.171103 C 74.316912 14.886677 74.692981 15.821625 74.692981 16.986393 C 74.692981 18.511559 74.269904 19.754674 73.428973 20.726184 C 72.593265 21.687248 71.303142 22.183449 69.553379 22.214788 C 68.696779 22.214788 67.923749 22.141664 67.234291 22.000638 C 66.544832 21.859612 65.944167 21.577561 65.432296 21.164931 C 64.920425 20.7523 64.66449 20.256099 64.66449 19.676326 C 64.66449 19.096554 64.774176 18.516782 64.983103 17.93701 C 65.202477 17.362461 65.427073 16.98117 65.667339 16.798358 Z M 65.667339 16.798358 " stroke="#221e1a" stroke-width="5.599991" stroke-opacity="1" stroke-miterlimit="4"/></g><g fill="#ffffff" fill-opacity="1"><g transform="translate(9.574729, 51.093273)"><g><path d="M 3.984375 -0.21875 C 3.984375 -0.0625 3.484375 0.015625 2.484375 0.015625 L 1.59375 -0.03125 C 1.0625 -0.0703125 0.796875 -0.144531 0.796875 -0.25 L 0.796875 -10.953125 C 0.796875 -11.140625 1.328125 -11.234375 2.390625 -11.234375 C 3.453125 -11.234375 3.984375 -11.140625 3.984375 -10.953125 L 3.984375 -6.875 L 5.9375 -10.953125 C 6.007812 -11.109375 6.429688 -11.1875 7.203125 -11.1875 C 8.617188 -11.1875 9.363281 -11.0625 9.4375 -10.8125 C 9.4375 -10.789062 9.429688 -10.769531 9.421875 -10.75 L 6.65625 -5.75 L 9.875 -1.296875 C 9.875 -1.273438 9.773438 -1.179688 9.578125 -1.015625 C 9.085938 -0.597656 8.507812 -0.265625 7.84375 -0.015625 C 7.644531 0.0546875 7.445312 0.09375 7.25 0.09375 L 6.859375 0.0625 C 6.515625 -0.0195312 6.25 -0.238281 6.0625 -0.59375 L 4.25 -4.0625 L 3.984375 -4.0625 Z M 3.984375 -0.21875 "/></g></g></g><g fill="#ffffff" fill-opacity="1"><g transform="translate(19.464175, 51.093273)"><g><path d="M 8.296875 0.03125 C 7.367188 0.03125 6.867188 -0.117188 6.796875 -0.421875 L 6.265625 -2.46875 L 3.734375 -2.46875 L 3.265625 -0.5 C 3.203125 -0.164062 2.691406 0 1.734375 0 C 1.222656 0 0.84375 -0.0234375 0.59375 -0.078125 C 0.351562 -0.140625 0.234375 -0.1875 0.234375 -0.21875 L 3.0625 -11.03125 C 3.0625 -11.113281 3.789062 -11.15625 5.25 -11.15625 C 6.707031 -11.15625 7.4375 -11.113281 7.4375 -11.03125 L 10.1875 -0.203125 C 10.1875 -0.128906 9.941406 -0.0703125 9.453125 -0.03125 C 8.960938 0.0078125 8.578125 0.03125 8.296875 0.03125 Z M 4.125 -4.5 L 5.8125 -4.5 L 5.09375 -7.796875 L 5 -7.796875 Z M 4.125 -4.5 "/></g></g></g><g fill="#ffffff" fill-opacity="1"><g transform="translate(29.911887, 51.093273)"><g><path d="M 11.96875 0.015625 C 11.019531 0.015625 10.546875 -0.0859375 10.546875 -0.296875 L 10.203125 -6.703125 L 8.265625 -0.21875 C 8.222656 -0.09375 7.859375 -0.03125 7.171875 -0.03125 C 6.492188 -0.03125 6.144531 -0.0859375 6.125 -0.203125 L 4.109375 -6.765625 L 3.890625 -0.40625 C 3.878906 -0.238281 3.675781 -0.125 3.28125 -0.0625 C 2.894531 -0.0078125 2.570312 0.015625 2.3125 0.015625 C 2.050781 0.015625 1.796875 0 1.546875 -0.03125 C 1.035156 -0.101562 0.785156 -0.238281 0.796875 -0.4375 L 1.171875 -10.796875 C 1.171875 -11.054688 1.816406 -11.1875 3.109375 -11.1875 C 3.492188 -11.1875 3.960938 -11.15625 4.515625 -11.09375 C 5.066406 -11.03125 5.375 -10.914062 5.4375 -10.75 L 7.234375 -5.734375 L 8.796875 -10.765625 C 8.890625 -11.046875 9.617188 -11.1875 10.984375 -11.1875 C 11.378906 -11.1875 11.847656 -11.15625 12.390625 -11.09375 C 12.941406 -11.03125 13.21875 -10.925781 13.21875 -10.78125 L 13.6875 -0.3125 C 13.6875 -0.195312 13.476562 -0.113281 13.0625 -0.0625 C 12.644531 -0.0078125 12.28125 0.015625 11.96875 0.015625 Z M 11.96875 0.015625 "/></g></g></g><g fill="#ffffff" fill-opacity="1"><g transform="translate(44.379179, 51.093273)"><g><path d="M 1.84375 -2.75 L 1.84375 -8.421875 L 0.71875 -8.421875 C 0.539062 -8.421875 0.410156 -8.648438 0.328125 -9.109375 C 0.296875 -9.328125 0.28125 -9.550781 0.28125 -9.78125 C 0.28125 -10.019531 0.296875 -10.253906 0.328125 -10.484375 C 0.410156 -10.941406 0.539062 -11.171875 0.71875 -11.171875 L 6.078125 -11.171875 C 6.253906 -11.171875 6.375 -10.941406 6.4375 -10.484375 C 6.488281 -10.253906 6.515625 -10.019531 6.515625 -9.78125 C 6.515625 -9.550781 6.488281 -9.328125 6.4375 -9.109375 C 6.375 -8.648438 6.253906 -8.421875 6.078125 -8.421875 L 5.015625 -8.421875 L 5.015625 -2.75 L 6.125 -2.75 C 6.300781 -2.75 6.429688 -2.519531 6.515625 -2.0625 C 6.554688 -1.832031 6.578125 -1.597656 6.578125 -1.359375 C 6.578125 -1.128906 6.554688 -0.90625 6.515625 -0.6875 C 6.429688 -0.226562 6.300781 0 6.125 0 L 0.75 0 C 0.570312 0 0.453125 -0.226562 0.390625 -0.6875 C 0.335938 -0.90625 0.3125 -1.128906 0.3125 -1.359375 C 0.3125 -1.597656 0.335938 -1.832031 0.390625 -2.0625 C 0.453125 -2.519531 0.570312 -2.75 0.75 -2.75 Z M 1.84375 -2.75 "/></g></g></g><g fill="#ffffff" fill-opacity="1"><g transform="translate(51.22203, 51.093273)"><g><path d="M 1.21875 -3.890625 C 1.414062 -3.734375 1.757812 -3.515625 2.25 -3.234375 C 2.75 -2.960938 3.222656 -2.828125 3.671875 -2.828125 C 4.128906 -2.828125 4.359375 -3 4.359375 -3.34375 C 4.359375 -3.507812 4.289062 -3.648438 4.15625 -3.765625 C 4.03125 -3.890625 3.796875 -4.03125 3.453125 -4.1875 C 3.117188 -4.351562 2.863281 -4.476562 2.6875 -4.5625 C 2.519531 -4.65625 2.296875 -4.804688 2.015625 -5.015625 C 1.734375 -5.222656 1.519531 -5.4375 1.375 -5.65625 C 0.945312 -6.269531 0.734375 -7.039062 0.734375 -7.96875 C 0.734375 -8.90625 1.082031 -9.695312 1.78125 -10.34375 C 2.476562 -10.988281 3.390625 -11.3125 4.515625 -11.3125 C 5.273438 -11.3125 5.976562 -11.226562 6.625 -11.0625 C 7.28125 -10.894531 7.617188 -10.679688 7.640625 -10.421875 C 7.640625 -10.390625 7.640625 -10.359375 7.640625 -10.328125 C 7.640625 -9.953125 7.519531 -9.476562 7.28125 -8.90625 C 7.050781 -8.34375 6.890625 -8.023438 6.796875 -7.953125 C 6.117188 -8.304688 5.507812 -8.484375 4.96875 -8.484375 C 4.425781 -8.484375 4.15625 -8.289062 4.15625 -7.90625 C 4.15625 -7.675781 4.351562 -7.472656 4.75 -7.296875 C 4.832031 -7.253906 4.953125 -7.191406 5.109375 -7.109375 C 5.273438 -7.035156 5.460938 -6.945312 5.671875 -6.84375 C 5.878906 -6.75 6.101562 -6.625 6.34375 -6.46875 C 6.582031 -6.3125 6.835938 -6.109375 7.109375 -5.859375 C 7.671875 -5.328125 7.953125 -4.625 7.953125 -3.75 C 7.953125 -2.613281 7.640625 -1.679688 7.015625 -0.953125 C 6.390625 -0.234375 5.421875 0.132812 4.109375 0.15625 C 3.472656 0.15625 2.894531 0.101562 2.375 0 C 1.863281 -0.101562 1.414062 -0.304688 1.03125 -0.609375 C 0.65625 -0.921875 0.46875 -1.296875 0.46875 -1.734375 C 0.46875 -2.171875 0.546875 -2.601562 0.703125 -3.03125 C 0.859375 -3.46875 1.03125 -3.753906 1.21875 -3.890625 Z M 1.21875 -3.890625 "/></g></g></g><g clip-path="url(#04f56336f1)"><path stroke-linecap="butt" transform="matrix(0.747869, 0, 0, 0.747869, 16.601627, 4.720549)" fill="none" stroke-linejoin="miter" d="M 8.764396 12.376512 C 11.835622 12.084015 14.191272 10.595411 14.191272 7.550301 C 14.191272 4.651441 12.462402 4.411175 10.179876 4.191801 C 9.312829 4.118677 8.330873 4.092561 7.322801 4.092561 C 5.405896 4.092561 3.389752 4.191801 1.734006 4.217917 C 1.660882 4.217917 1.446732 4.264926 1.446732 4.479076 C 1.446732 4.891707 1.781015 5.100633 2.089182 5.100633 C 2.214538 5.100633 2.308555 5.079741 2.407796 5.079741 C 2.668954 5.079741 2.762971 5.22599 2.762971 5.44014 C 2.762971 5.659513 2.69507 5.920672 2.668954 6.207946 C 2.648062 6.782495 2.428688 9.665686 2.214538 12.78392 C 1.948156 13.859893 1.08111 13.384585 1.060217 13.839001 L 1.060217 13.859893 C 1.060217 14.246408 1.901148 14.079267 2.042174 15.061223 C 1.880255 17.249732 1.754899 19.286769 1.707891 20.467206 C 1.660882 21.402154 1.660882 21.42827 1.300483 21.54318 C 1.18035 21.590188 0.9662 21.736437 0.9662 21.950587 C 0.9662 22.149068 1.133342 22.357995 1.300483 22.357995 C 1.399723 22.357995 1.420616 22.331879 1.540749 22.28487 C 2.214538 22.023712 3.097254 21.976703 4.058318 21.976703 C 5.593931 21.976703 7.516058 22.237862 8.430113 22.237862 C 11.694596 22.237862 15.486619 20.90073 15.486619 17.176608 C 15.486619 13.191327 11.788613 12.376512 8.764396 12.376512 Z M 8.043599 21.564073 L 7.970474 21.564073 C 6.962402 21.564073 6.074463 21.083541 5.959553 20.514215 C 5.787188 19.793417 5.74018 18.905478 5.74018 17.944414 C 5.74018 15.400729 6.173703 12.47053 6.220711 11.634822 C 6.335621 9.827604 6.48187 7.837576 6.769144 6.207946 C 6.962402 5.199874 7.489942 4.672333 8.571139 4.672333 C 9.866486 4.672333 10.801433 5.079741 10.801433 6.615353 C 10.801433 9.644793 9.579211 11.775848 6.894501 12.350397 C 6.722136 12.376512 6.654235 12.564547 6.654235 12.689903 C 6.654235 12.830928 6.79526 12.904053 6.894501 12.904053 C 6.941509 12.904053 6.962402 12.904053 7.00941 12.88316 C 7.296685 12.78392 7.563067 12.757804 7.850341 12.757804 C 10.226885 12.757804 11.522231 14.580691 11.522231 16.790093 C 11.522231 19.046504 10.300009 21.496171 8.043599 21.564073 Z M 8.043599 21.564073 " stroke="#221e1a" stroke-width="5.49" stroke-opacity="1" stroke-miterlimit="4"/></g><path stroke-linecap="butt" transform="matrix(0.747869, 0, 0, 0.747869, 28.735023, 4.720549)" fill="none" stroke-linejoin="miter" d="M 6.94073 4.092561 C 4.611195 4.092561 3.002458 4.118677 1.398944 4.118677 C 1.226579 4.144793 1.012429 4.385059 1.012429 4.599209 C 1.012429 4.813359 1.205687 4.860368 1.398944 4.860368 C 1.53997 4.860368 1.660102 4.839475 1.733227 4.839475 C 2.114518 4.839475 2.140634 5.131972 2.187643 5.96768 L 2.187643 6.061697 C 2.213759 6.568345 2.234651 7.435391 2.234651 8.490472 C 2.234651 9.780596 2.213759 11.363217 2.187643 12.930169 C 2.020501 14.131498 1.106446 13.671859 1.106446 14.131498 L 1.106446 14.152391 C 1.106446 14.559798 2.16675 14.559798 2.16675 15.301489 C 2.16675 17.009466 2.088403 18.665212 2.088403 19.506143 C 2.088403 20.869391 2.088403 21.449163 1.660102 21.611081 C 1.419837 21.710321 0.986313 21.908802 0.965421 22.117729 L 0.965421 22.149068 C 0.965421 22.310986 1.08033 22.357995 1.252695 22.357995 C 2.28166 22.357995 3.242724 22.263978 4.203787 22.263978 C 5.164851 22.263978 6.005782 22.28487 6.340065 22.310986 C 6.507206 22.310986 6.580331 22.237862 6.580331 22.117729 C 6.580331 21.950587 6.533322 21.689429 6.413189 21.689429 L 6.340065 21.689429 C 6.005782 21.689429 5.979666 21.402154 5.958773 20.968631 C 5.958773 19.218868 5.812524 17.537007 5.812524 15.855145 C 5.812524 14.272524 6.893721 14.820957 6.893721 14.319533 L 6.893721 14.293417 C 6.893721 13.891232 6.005782 14.152391 5.786409 13.071194 C 5.812524 9.106807 5.979666 6.641469 5.979666 6.087813 C 5.979666 5.75353 5.979666 4.912599 6.413189 4.912599 C 6.439305 4.912599 6.700464 4.938715 6.841489 4.938715 C 7.160103 4.938715 7.275013 4.792466 7.275013 4.526085 C 7.275013 4.311934 7.207111 4.118677 6.94073 4.092561 Z M 6.94073 4.092561 " stroke="#221e1a" stroke-width="5.49" stroke-opacity="1" stroke-miterlimit="4"/><path stroke-linecap="butt" transform="matrix(0.747869, 0, 0, 0.747869, 35.645316, 4.720549)" fill="none" stroke-linejoin="miter" d="M 17.021269 23.465307 C 12.769606 23.465307 16.927252 13.598735 9.724497 13.598735 L 9.463338 13.598735 C 12.242066 12.830928 14.644725 11.028934 14.644725 7.936816 C 14.644725 5.96768 13.490404 3.805287 10.319939 3.805287 C 9.964763 3.805287 4.778153 4.118677 2.856025 4.118677 C 2.088219 4.118677 1.733043 4.045553 1.39876 4.045553 C 1.033138 4.045553 0.939121 4.144793 0.939121 4.285819 C 0.939121 4.76635 1.39876 4.985724 1.539786 4.985724 C 2.427725 5.152865 2.453841 5.821431 2.453841 6.568345 C 2.453841 7.409276 2.406833 9.952961 2.328485 12.642894 C 2.166567 13.839001 1.252511 13.384585 1.226396 13.859893 C 1.226396 14.272524 2.067326 14.032258 2.281476 14.993322 C 2.260584 17.155715 2.234468 18.905478 2.234468 20.660464 C 2.234468 21.208897 2.166567 21.208897 1.706927 21.235013 C 1.639026 21.235013 1.320413 21.449163 1.320413 21.804338 C 1.320413 21.908802 1.466662 22.023712 1.607687 22.023712 C 2.715 22.023712 6.313765 21.997596 6.820413 22.023712 C 7.133804 22.023712 7.274829 21.976703 7.274829 21.710321 C 7.274829 21.470055 7.159919 21.188004 6.773405 21.188004 C 6.773405 21.188004 6.392113 21.188004 6.392113 20.796266 C 6.392113 20.247833 6.245864 16.596836 6.245864 12.904053 C 6.245864 9.347073 6.413006 5.800539 7.034563 5.032732 C 7.274829 4.672333 8.476159 4.599209 8.836558 4.599209 C 9.865523 4.599209 10.993728 5.032732 10.993728 6.829503 C 10.993728 9.932068 9.771506 12.757804 6.360774 13.504718 C 6.339881 13.52561 6.313765 13.572619 6.313765 13.650967 C 6.313765 13.859893 6.460014 14.1994 7.013671 14.1994 C 12.769606 14.1994 7.081572 23.992848 15.840832 23.992848 C 16.206454 23.992848 16.608638 23.966732 17.021269 23.945839 C 17.214526 23.919723 17.355552 23.846599 17.355552 23.658565 C 17.355552 23.4862 17.18841 23.465307 17.021269 23.465307 Z M 17.021269 23.465307 " stroke="#221e1a" stroke-width="5.49" stroke-opacity="1" stroke-miterlimit="4"/><path stroke-linecap="butt" transform="matrix(0.747869, 0, 0, 0.747869, 48.460772, 4.720549)" fill="none" stroke-linejoin="miter" d="M 13.25141 3.784394 C 11.569548 3.904527 5.113707 4.092561 1.781323 4.092561 L 0.794144 4.092561 C 0.120355 4.092561 0.00544485 4.860368 0.00544485 5.706521 C 0.00544485 6.254955 0.0524534 6.829503 0.0524534 7.289143 C 0.0524534 7.628649 0.00544485 7.769675 0.00544485 7.915923 C 0.00544485 8.030833 0.0524534 8.156189 0.172586 8.177082 C 0.266603 8.203198 0.39196 8.203198 0.532985 8.203198 L 0.9195 8.203198 C 1.159766 8.156189 1.206774 7.915923 1.206774 7.59731 C 1.206774 7.336151 1.180659 7.022761 1.180659 6.688478 C 1.180659 5.847547 1.400032 4.985724 3.050554 4.985724 C 3.818361 4.985724 4.664515 4.985724 4.664515 5.75353 C 4.664515 5.96768 4.638399 6.207946 4.638399 6.542229 C 4.60706 6.928744 4.586167 9.691802 4.539158 12.663787 C 4.366794 13.839001 3.463185 13.384585 3.463185 13.859893 L 3.463185 13.891232 C 3.463185 14.272524 4.319785 14.053151 4.513043 15.087339 C 4.471257 17.897406 4.424249 20.362743 4.398133 20.707472 C 4.398133 21.140996 4.105635 21.161888 3.598987 21.188004 C 3.243812 21.208897 2.935645 21.235013 2.935645 21.590188 C 2.935645 21.75733 2.956537 21.976703 3.149795 21.976703 C 3.578095 21.976703 8.738589 21.997596 9.438494 22.023712 C 10.060052 22.023712 10.080944 21.736437 10.080944 21.381262 C 10.080944 21.188004 9.866794 21.161888 9.57952 21.161888 L 9.119881 21.161888 C 8.931846 21.161888 8.764705 21.161888 8.69158 21.083541 C 8.404306 20.843275 8.305066 18.18468 8.305066 15.139571 C 8.47743 14.006142 9.360146 14.439666 9.360146 13.98525 C 9.360146 13.572619 8.571447 13.791992 8.305066 12.930169 C 8.352074 9.885059 8.545332 6.928744 8.670688 6.040804 C 8.717696 5.680406 8.738589 4.938715 9.025863 4.912599 C 9.412378 4.912599 9.699653 4.860368 10.013043 4.860368 C 11.788922 4.860368 12.196329 5.320007 12.196329 6.014689 C 12.196329 6.427319 12.05008 6.907851 11.982179 7.456284 C 11.982179 7.675657 12.415702 8.030833 12.749985 8.030833 C 13.1365 8.030833 13.058152 7.936816 13.204401 7.4824 C 13.345427 7.022761 13.77895 5.607281 13.77895 4.672333 C 13.77895 4.144793 13.66404 3.784394 13.25141 3.784394 Z M 13.25141 3.784394 " stroke="#221e1a" stroke-width="5.49" stroke-opacity="1" stroke-miterlimit="4"/><path stroke-linecap="butt" transform="matrix(0.747869, 0, 0, 0.747869, 59.517235, 4.720549)" fill="none" stroke-linejoin="miter" d="M 15.839729 4.118677 L 15.818836 4.118677 C 15.218171 4.285819 14.06385 4.385059 12.966984 4.385059 C 11.958912 4.385059 10.971732 4.311934 10.423299 4.118677 C 10.344952 4.092561 10.27705 4.071669 10.203926 4.071669 C 9.916651 4.071669 9.86442 4.358943 9.86442 4.573093 C 9.86442 4.985724 10.297943 5.006616 10.423299 5.006616 C 10.877715 5.006616 11.112758 5.393131 11.16499 5.774423 C 11.191106 6.040804 11.211998 6.49522 11.211998 7.048877 C 11.211998 8.22409 11.065749 11.102058 10.95084 14.006142 C 10.397183 13.98525 9.843527 13.98525 9.289871 13.98525 C 8.187781 13.98525 7.106585 14.006142 6.150744 14.032258 C 6.150744 11.342324 6.265654 5.199874 6.918551 5.178981 C 7.346851 5.152865 7.973631 5.131972 7.973631 4.651441 C 7.973631 4.458183 7.900507 4.217917 7.587117 4.217917 C 7.346851 4.217917 6.939443 4.332827 5.97838 4.332827 L 3.680184 4.332827 C 2.886262 4.332827 2.113232 4.332827 1.825958 4.311934 L 1.805065 4.311934 C 1.585692 4.311934 1.397657 4.5522 1.371542 4.76635 C 1.371542 5.032732 1.491675 5.178981 1.711048 5.178981 C 1.878189 5.178981 2.019215 5.131972 2.144571 5.131972 C 2.332605 5.131972 2.452738 5.272998 2.452738 5.993796 L 2.452738 6.348972 C 2.452738 6.568345 2.332605 9.644793 2.238588 12.930169 C 2.066224 14.131498 1.157392 13.671859 1.157392 14.131498 C 1.157392 14.559798 2.019215 14.293417 2.165464 15.447738 C 2.165464 15.588763 2.144571 15.761128 2.144571 15.907377 C 2.092339 17.463882 2.066224 18.884585 2.066224 20.320958 C 2.066224 21.140996 2.019215 21.611081 1.136499 21.75733 C 1.011143 21.783446 0.943241 22.023712 0.943241 22.190853 C 0.943241 22.410226 1.10516 22.478128 1.277525 22.478128 C 1.491675 22.478128 1.73194 22.410226 1.852073 22.357995 C 2.092339 22.28487 2.93327 22.263978 3.894334 22.263978 C 6.338778 22.263978 7.03346 22.431119 7.226718 22.431119 C 7.419975 22.431119 7.4931 22.28487 7.513992 22.190853 C 7.513992 21.950587 7.205825 21.64242 6.892435 21.611081 C 6.218646 21.54318 6.098513 19.553151 6.098513 17.798165 C 6.098513 16.675183 6.150744 15.808137 6.150744 14.946313 L 6.150744 14.899305 C 6.552929 14.867966 7.012568 14.867966 7.446091 14.867966 C 8.616082 14.867966 9.843527 14.899305 10.924724 14.946313 C 10.778475 18.351822 10.637449 21.496171 10.371067 21.564073 C 10.27705 21.668536 9.655493 21.64242 9.655493 22.28487 C 9.702501 22.410226 9.796519 22.457235 9.895759 22.457235 C 9.942767 22.457235 9.989776 22.431119 10.057677 22.431119 C 10.4912 22.331879 13.348276 22.216969 14.810764 22.216969 L 15.359197 22.216969 C 15.630802 22.216969 15.724819 21.976703 15.724819 21.783446 C 15.724819 21.64242 15.677811 21.517064 15.599463 21.517064 C 15.312188 21.470055 14.831657 21.54318 14.73764 21.161888 C 14.669738 20.994747 14.648846 20.200825 14.648846 19.072619 C 14.648846 17.604908 14.695854 16.481926 14.695854 15.379837 C 14.957013 14.340425 15.79272 14.773949 15.818836 14.340425 C 15.818836 13.912125 14.93612 14.131498 14.784648 13.071194 C 14.93612 9.712695 15.118931 6.448212 15.218171 5.847547 C 15.291296 5.367015 15.416652 4.912599 15.965085 4.745458 C 16.032986 4.698449 16.132227 4.651441 16.132227 4.5522 C 16.132227 4.411175 15.965085 4.118677 15.839729 4.118677 Z M 15.839729 4.118677 " stroke="#221e1a" stroke-width="5.49" stroke-opacity="1" stroke-miterlimit="4"/><path stroke-linecap="butt" transform="matrix(0.747869, 0, 0, 0.747869, 73.032685, 4.720549)" fill="none" stroke-linejoin="miter" d="M 13.902166 13.144319 C 13.996183 11.843749 14.043191 10.74166 14.043191 9.644793 C 14.043191 7.456284 13.494758 3.977651 8.020874 3.977651 C 6.725527 3.977651 5.592099 4.264926 4.422108 4.264926 C 3.152877 4.264926 1.606818 4.02466 1.298651 3.951536 L 1.277758 3.951536 C 1.157625 3.951536 1.084501 4.191801 1.084501 4.358943 C 1.084501 4.458183 1.084501 4.505192 1.136733 4.526085 C 1.471016 4.672333 2.066457 4.792466 2.113466 5.581165 C 2.191813 6.568345 2.238822 7.649542 2.238822 8.824755 C 2.238822 10.093986 2.191813 11.462457 2.144805 12.78392 C 1.97244 14.178507 0.990484 13.619627 0.964368 14.100159 L 0.964368 14.131498 C 0.964368 14.533683 1.878423 14.319533 1.998556 15.447738 C 1.805299 18.853246 1.471016 21.302914 1.471016 21.851347 C 1.471016 22.117729 1.518024 22.357995 1.805299 22.357995 C 2.212706 22.384111 2.61489 22.384111 3.001405 22.384111 C 10.324293 22.384111 12.794853 18.806238 13.583552 15.186579 C 13.970067 14.272524 14.716981 14.773949 14.784882 14.340425 L 14.784882 14.319533 C 14.784882 13.959134 14.017076 14.006142 13.902166 13.144319 Z M 6.150978 21.255905 C 6.025622 21.276798 5.931605 21.302914 5.85848 21.302914 C 5.785356 21.302914 5.738347 21.276798 5.738347 21.208897 C 5.717455 20.822382 5.592099 17.65714 5.592099 14.225515 C 5.592099 9.952961 5.764463 5.246882 6.53227 5.100633 C 6.918784 5.032732 7.347084 4.959608 7.780608 4.959608 C 9.31622 4.959608 10.851833 5.847547 10.851833 10.74166 C 10.851833 14.773949 10.298177 19.767301 6.150978 21.255905 Z M 6.150978 21.255905 " stroke="#221e1a" stroke-width="5.49" stroke-opacity="1" stroke-miterlimit="4"/><path stroke-linecap="butt" transform="matrix(0.747869, 0, 0, 0.747869, 84.842993, 4.720549)" fill="none" stroke-linejoin="miter" d="M 14.855714 20.634348 C 14.568439 20.634348 14.307281 21.323807 13.659607 21.323807 C 13.607376 21.323807 13.560367 21.302914 13.492466 21.302914 C 13.346217 20.707472 12.93881 18.424946 12.531402 15.688004 C 12.630642 14.753056 13.419341 14.967206 13.419341 14.580691 L 13.419341 14.559798 C 13.36711 14.152391 12.552295 14.51279 12.197119 13.551726 C 11.716587 10.193226 11.30918 6.688478 11.30918 5.152865 C 11.30918 4.672333 11.330072 4.385059 11.429313 4.332827 C 11.502437 4.285819 11.617347 4.170909 12.291136 3.977651 C 12.390376 3.951536 12.463501 3.737385 12.463501 3.518012 C 12.463501 3.324755 12.416492 3.063596 12.197119 3.063596 C 12.118771 3.063596 12.071763 3.084489 12.003862 3.136721 C 11.502437 3.612029 10.88088 3.643368 10.274992 3.643368 C 8.932636 3.643368 7.057517 3.376987 5.454004 3.376987 C 3.312503 3.376987 1.996264 3.883634 1.489616 5.75353 C 1.468723 5.86844 1.44783 5.96768 1.44783 6.061697 C 1.44783 6.380311 1.688096 6.667585 1.970148 6.667585 C 2.111173 6.667585 2.257422 6.589238 2.257422 6.521336 L 2.257422 6.427319 C 2.257422 5.006616 3.50576 4.217917 4.70709 4.217917 C 4.686197 4.332827 4.660081 4.479076 4.660081 4.672333 C 4.660081 6.014689 3.965399 9.806712 3.218486 13.358469 C 2.811078 14.606807 1.970148 13.938241 1.881354 14.392657 L 1.881354 14.439666 C 1.881354 14.773949 2.670053 14.773949 2.670053 15.761128 C 2.257422 17.730264 1.928362 19.239761 1.688096 20.080692 C 1.536624 20.634348 1.181449 21.235013 0.601677 21.449163 C 0.361411 21.54318 -0.019881 21.830454 -0.019881 22.07072 C -0.019881 22.169961 0.0271276 22.190853 0.100252 22.190853 C 0.507659 22.190853 1.322474 21.997596 3.986292 21.997596 C 4.080309 21.997596 4.158657 21.950587 4.158657 21.851347 L 4.158657 21.804338 C 4.158657 21.710321 4.106425 21.381262 3.986292 21.349922 C 3.265494 21.323807 3.072237 21.062648 3.072237 20.634348 C 3.072237 20.320958 3.197593 20.033683 3.197593 19.767301 C 3.265494 19.286769 3.652009 17.44299 4.158657 15.207472 C 4.900347 15.139571 5.741278 15.108232 6.629217 15.108232 C 7.250775 15.108232 7.85144 15.139571 8.452104 15.160463 C 8.765495 17.510891 9.005761 19.506143 9.005761 20.394082 C 8.932636 21.036532 8.572237 21.496171 7.778315 21.783446 C 7.470148 21.908802 7.370908 22.023712 7.370908 22.169961 C 7.370908 22.357995 7.470148 22.650492 7.663405 22.650492 C 7.757423 22.650492 7.877556 22.572145 7.95068 22.525136 C 8.619246 22.169961 9.313928 22.07072 10.034726 22.07072 L 13.706616 22.07072 C 14.453529 22.07072 15.028078 21.208897 15.028078 20.822382 C 15.028078 20.707472 14.954954 20.634348 14.855714 20.634348 Z M 4.299683 14.465781 L 6.556093 4.411175 C 6.702342 4.411175 6.843367 4.385059 6.942608 4.385059 C 6.942608 4.385059 7.757423 9.827604 8.352864 14.366541 L 8.06559 14.366541 C 6.629217 14.366541 5.307755 14.418773 4.299683 14.465781 Z M 4.299683 14.465781 " stroke="#221e1a" stroke-width="5.49" stroke-opacity="1" stroke-miterlimit="4"/><path stroke-linecap="butt" transform="matrix(0.747869, 0, 0, 0.747869, 96.814853, 4.720549)" fill="none" stroke-linejoin="miter" d="M 12.6526 3.518012 C 12.391441 3.612029 11.644527 3.690377 10.996854 3.690377 C 10.610339 3.690377 10.276056 3.664261 10.103692 3.591137 C 10.03579 3.565021 9.962666 3.518012 9.894765 3.518012 C 9.769409 3.518012 9.7224 3.690377 9.7224 3.758278 C 9.7224 3.930643 9.842533 4.144793 9.894765 4.23881 C 10.009675 4.385059 10.70958 4.411175 10.70958 4.698449 L 10.70958 4.719342 C 10.636455 5.100633 8.432277 12.209371 8.30692 12.611555 C 7.99353 11.58259 6.269883 6.589238 5.810244 5.246882 C 5.716227 4.985724 5.669218 4.792466 5.669218 4.651441 C 5.669218 4.479076 5.956493 4.264926 6.437025 4.118677 C 6.531042 4.092561 6.703406 4.045553 6.703406 3.883634 C 6.703406 3.664261 6.557158 3.471004 6.3639 3.471004 C 6.316892 3.471004 5.695334 3.690377 4.347756 3.690377 C 2.979285 3.690377 0.989256 3.591137 0.388591 3.324755 C 0.315467 3.303862 0.195334 3.230738 0.0752008 3.230738 C -0.0658248 3.230738 -0.144172 3.350871 -0.144172 3.471004 C -0.144172 3.664261 -0.0188163 3.930643 0.148325 3.998544 C 0.22145 4.045553 1.104166 4.385059 1.422779 5.178981 C 1.610813 5.659513 4.300747 12.303388 4.781279 13.744984 C 4.42088 14.131498 3.940348 13.938241 3.919456 14.272524 L 3.919456 14.293417 C 3.919456 14.72694 4.84918 14.465781 4.948421 15.855145 C 5.021545 16.962458 5.042438 17.944414 5.042438 18.931594 C 5.042438 19.720293 5.021545 20.394082 4.974536 20.796266 C 4.901412 21.062648 4.927528 21.109657 4.608914 21.161888 C 4.399988 21.188004 4.274631 21.42827 4.274631 21.64242 C 4.274631 21.908802 4.446996 22.044604 4.661146 22.044604 C 5.40806 22.044604 6.003501 21.997596 6.604166 21.997596 L 8.406161 21.997596 C 9.19486 21.997596 9.314993 22.023712 9.435126 22.023712 C 9.675392 22.023712 9.915657 21.950587 9.915657 21.64242 C 9.915657 21.302914 9.576151 21.161888 9.482134 21.140996 C 9.147851 21.083541 9.19486 20.921622 9.147851 20.582116 C 9.048611 20.033683 8.886693 17.009466 8.886693 14.946313 C 9.19486 14.100159 9.941773 14.486674 9.962666 14.053151 C 9.962666 13.697975 9.267984 13.812885 9.001602 13.092087 C 9.362001 11.989998 11.23712 5.607281 11.670643 4.745458 C 11.738545 4.573093 12.391441 4.358943 12.725724 4.358943 C 12.840634 4.358943 12.892866 4.385059 12.918982 4.385059 C 13.107016 4.385059 13.107016 3.930643 13.107016 3.805287 C 13.107016 3.612029 13.060007 3.450111 12.892866 3.450111 C 12.819741 3.450111 12.725724 3.49712 12.6526 3.518012 Z M 12.6526 3.518012 " stroke="#221e1a" stroke-width="5.49" stroke-opacity="1" stroke-miterlimit="4"/><path stroke-linecap="butt" transform="matrix(0.747869, 0, 0, 0.747869, 113.54314, 4.720549)" fill="none" stroke-linejoin="miter" d="M 2.888185 4.118677 C 2.167387 4.118677 1.901005 4.071669 1.639847 4.071669 C 1.060075 4.071669 0.939942 4.358943 0.939942 4.526085 C 0.939942 4.912599 1.253332 4.985724 1.540606 4.985724 C 2.235288 5.079741 2.454662 5.419247 2.454662 6.301963 L 2.454662 12.736911 C 2.308413 13.98525 1.368242 13.52561 1.368242 14.006142 C 1.368242 14.418773 2.214396 14.178507 2.454662 15.139571 C 2.454662 18.518963 2.475554 19.574044 2.475554 20.660464 C 2.475554 21.208897 2.407653 21.208897 1.948014 21.235013 C 1.880113 21.235013 1.561499 21.449163 1.561499 21.804338 C 1.561499 21.908802 1.707748 21.997596 1.848774 21.997596 C 2.407653 22.023712 3.577644 22.023712 4.684956 22.023712 L 7.056276 22.023712 C 7.369667 22.023712 7.515916 21.976703 7.515916 21.710321 C 7.515916 21.470055 7.401006 21.188004 6.988375 21.188004 C 6.842126 21.188004 6.633199 21.062648 6.633199 20.634348 C 6.633199 19.746409 6.460835 15.975278 6.460835 12.324281 C 6.460835 8.704622 6.633199 5.246882 7.322658 4.860368 C 7.401006 4.813359 8.111357 4.573093 8.910503 4.573093 C 9.918575 4.573093 11.041557 4.985724 11.041557 6.829503 C 11.041557 9.952961 9.793219 12.757804 6.60186 13.478602 C 6.554852 13.504718 6.554852 13.572619 6.554852 13.650967 C 6.554852 14.100159 7.009268 14.178507 7.343551 14.178507 C 10.94754 13.671859 14.765679 11.869865 14.765679 8.030833 C 14.765679 6.087813 13.684482 3.805287 10.514016 3.805287 C 8.476979 3.805287 8.283722 4.118677 2.888185 4.118677 Z M 2.888185 4.118677 " stroke="#221e1a" stroke-width="5.49" stroke-opacity="1" stroke-miterlimit="4"/><path stroke-linecap="butt" transform="matrix(0.747869, 0, 0, 0.747869, 125.138072, 4.720549)" fill="none" stroke-linejoin="miter" d="M 14.858116 20.634348 C 14.570842 20.634348 14.30446 21.323807 13.66201 21.323807 C 13.609778 21.323807 13.562769 21.302914 13.489645 21.302914 C 13.343396 20.707472 12.941212 18.424946 12.533804 15.688004 C 12.633045 14.753056 13.421744 14.967206 13.421744 14.580691 L 13.421744 14.559798 C 13.369512 14.152391 12.554697 14.51279 12.199521 13.551726 C 11.718989 10.193226 11.306359 6.688478 11.306359 5.152865 C 11.306359 4.672333 11.332475 4.385059 11.431715 4.332827 C 11.499616 4.285819 11.619749 4.170909 12.293538 3.977651 C 12.392779 3.951536 12.46068 3.737385 12.46068 3.518012 C 12.46068 3.324755 12.413671 3.063596 12.199521 3.063596 C 12.121174 3.063596 12.074165 3.084489 12.006264 3.136721 C 11.499616 3.612029 10.878059 3.643368 10.277394 3.643368 C 8.935039 3.643368 7.05992 3.376987 5.451183 3.376987 C 3.314905 3.376987 1.998666 3.883634 1.492018 5.75353 C 1.471125 5.86844 1.44501 5.96768 1.44501 6.061697 C 1.44501 6.380311 1.685275 6.667585 1.97255 6.667585 C 2.113576 6.667585 2.259824 6.589238 2.259824 6.521336 L 2.259824 6.427319 C 2.259824 5.006616 3.508163 4.217917 4.709492 4.217917 C 4.683376 4.332827 4.662484 4.479076 4.662484 4.672333 C 4.662484 6.014689 3.962579 9.806712 3.220888 13.358469 C 2.808258 14.606807 1.97255 13.938241 1.878533 14.392657 L 1.878533 14.439666 C 1.878533 14.773949 2.672455 14.773949 2.672455 15.761128 C 2.259824 17.730264 1.925541 19.239761 1.685275 20.080692 C 1.539027 20.634348 1.183851 21.235013 0.604079 21.449163 C 0.363813 21.54318 -0.0174787 21.830454 -0.0174787 22.07072 C -0.0174787 22.169961 0.0295299 22.190853 0.0974311 22.190853 C 0.510062 22.190853 1.324877 21.997596 3.988694 21.997596 C 4.082712 21.997596 4.155836 21.950587 4.155836 21.851347 L 4.155836 21.804338 C 4.155836 21.710321 4.103604 21.381262 3.988694 21.349922 C 3.267897 21.323807 3.074639 21.062648 3.074639 20.634348 C 3.074639 20.320958 3.194772 20.033683 3.194772 19.767301 C 3.267897 19.286769 3.654411 17.44299 4.155836 15.207472 C 4.90275 15.139571 5.738457 15.108232 6.63162 15.108232 C 7.253177 15.108232 7.848619 15.139571 8.454507 15.160463 C 8.762674 17.510891 9.00294 19.506143 9.00294 20.394082 C 8.935039 21.036532 8.569417 21.496171 7.780718 21.783446 C 7.467327 21.908802 7.368087 22.023712 7.368087 22.169961 C 7.368087 22.357995 7.467327 22.650492 7.660585 22.650492 C 7.754602 22.650492 7.879958 22.572145 7.947859 22.525136 C 8.616425 22.169961 9.31633 22.07072 10.037128 22.07072 L 13.709018 22.07072 C 14.450709 22.07072 15.025258 21.208897 15.025258 20.822382 C 15.025258 20.707472 14.957356 20.634348 14.858116 20.634348 Z M 4.296862 14.465781 L 6.553272 4.411175 C 6.699521 4.411175 6.840547 4.385059 6.939787 4.385059 C 6.939787 4.385059 7.754602 9.827604 8.355267 14.366541 L 8.067992 14.366541 C 6.63162 14.366541 5.304934 14.418773 4.296862 14.465781 Z M 4.296862 14.465781 " stroke="#221e1a" stroke-width="5.49" stroke-opacity="1" stroke-miterlimit="4"/><path stroke-linecap="butt" transform="matrix(0.747869, 0, 0, 0.747869, 137.109925, 4.720549)" fill="none" stroke-linejoin="miter" d="M 17.021584 23.465307 C 12.769921 23.465307 16.927567 13.598735 9.724812 13.598735 L 9.45843 13.598735 C 12.242381 12.830928 14.64504 11.028934 14.64504 7.936816 C 14.64504 5.96768 13.490719 3.805287 10.320254 3.805287 C 9.965078 3.805287 4.778468 4.118677 2.85634 4.118677 C 2.088534 4.118677 1.733358 4.045553 1.399075 4.045553 C 1.033453 4.045553 0.939436 4.144793 0.939436 4.285819 C 0.939436 4.76635 1.399075 4.985724 1.540101 4.985724 C 2.42804 5.152865 2.454156 5.821431 2.454156 6.568345 C 2.454156 7.409276 2.407148 9.952961 2.3288 12.642894 C 2.166882 13.839001 1.252826 13.384585 1.226711 13.859893 C 1.226711 14.272524 2.067641 14.032258 2.281791 14.993322 C 2.260899 17.155715 2.234783 18.905478 2.234783 20.660464 C 2.234783 21.208897 2.166882 21.208897 1.707242 21.235013 C 1.639341 21.235013 1.320728 21.449163 1.320728 21.804338 C 1.320728 21.908802 1.466977 22.023712 1.608002 22.023712 C 2.715315 22.023712 6.31408 21.997596 6.820728 22.023712 C 7.134119 22.023712 7.275144 21.976703 7.275144 21.710321 C 7.275144 21.470055 7.160234 21.188004 6.77372 21.188004 C 6.77372 21.188004 6.392428 21.188004 6.392428 20.796266 C 6.392428 20.247833 6.246179 16.596836 6.246179 12.904053 C 6.246179 9.347073 6.413321 5.800539 7.034878 5.032732 C 7.275144 4.672333 8.476474 4.599209 8.83165 4.599209 C 9.865838 4.599209 10.994043 5.032732 10.994043 6.829503 C 10.994043 9.932068 9.771821 12.757804 6.361089 13.504718 C 6.340196 13.52561 6.31408 13.572619 6.31408 13.650967 C 6.31408 13.859893 6.460329 14.1994 7.013986 14.1994 C 12.769921 14.1994 7.081887 23.992848 15.841147 23.992848 C 16.206769 23.992848 16.608953 23.966732 17.021584 23.945839 C 17.214841 23.919723 17.355867 23.846599 17.355867 23.658565 C 17.355867 23.4862 17.188725 23.465307 17.021584 23.465307 Z M 17.021584 23.465307 " stroke="#221e1a" stroke-width="5.49" stroke-opacity="1" stroke-miterlimit="4"/><g clip-path="url(#0e2fb51573)"><path stroke-linecap="butt" transform="matrix(0.747869, 0, 0, 0.747869, 149.925381, 4.720549)" fill="none" stroke-linejoin="miter" d="M 13.251723 3.784394 C 11.569862 3.904527 5.114021 4.092561 1.781637 4.092561 L 0.794457 4.092561 C 0.120668 4.092561 0.00575824 4.860368 0.00575824 5.706521 C 0.00575824 6.254955 0.0527668 6.829503 0.0527668 7.289143 C 0.0527668 7.628649 0.00575824 7.769675 0.00575824 7.915923 C 0.00575824 8.030833 0.0527668 8.156189 0.1729 8.177082 C 0.266917 8.203198 0.392273 8.203198 0.533299 8.203198 L 0.919813 8.203198 C 1.160079 8.156189 1.207088 7.915923 1.207088 7.59731 C 1.207088 7.336151 1.180972 7.022761 1.180972 6.688478 C 1.180972 5.847547 1.400345 4.985724 3.050868 4.985724 C 3.818674 4.985724 4.659605 4.985724 4.659605 5.75353 C 4.659605 5.96768 4.638712 6.207946 4.638712 6.542229 C 4.607373 6.928744 4.58648 9.691802 4.539472 12.663787 C 4.367107 13.839001 3.463498 13.384585 3.463498 13.859893 L 3.463498 13.891232 C 3.463498 14.272524 4.320099 14.053151 4.513356 15.087339 C 4.466347 17.897406 4.419339 20.362743 4.398446 20.707472 C 4.398446 21.140996 4.105948 21.161888 3.599301 21.188004 C 3.244125 21.208897 2.935958 21.235013 2.935958 21.590188 C 2.935958 21.75733 2.956851 21.976703 3.150108 21.976703 C 3.578408 21.976703 8.738902 21.997596 9.438807 22.023712 C 10.060365 22.023712 10.081258 21.736437 10.081258 21.381262 C 10.081258 21.188004 9.867108 21.161888 9.579833 21.161888 L 9.120194 21.161888 C 8.93216 21.161888 8.765018 21.161888 8.691894 21.083541 C 8.404619 20.843275 8.305379 18.18468 8.305379 15.139571 C 8.477744 14.006142 9.36046 14.439666 9.36046 13.98525 C 9.36046 13.572619 8.571761 13.791992 8.305379 12.930169 C 8.352388 9.885059 8.545645 6.928744 8.671001 6.040804 C 8.71801 5.680406 8.738902 4.938715 9.026177 4.912599 C 9.412692 4.912599 9.699966 4.860368 10.013356 4.860368 C 11.789235 4.860368 12.196642 5.320007 12.196642 6.014689 C 12.196642 6.427319 12.050394 6.907851 11.982492 7.456284 C 11.982492 7.675657 12.416016 8.030833 12.750299 8.030833 C 13.136813 8.030833 13.058466 7.936816 13.204715 7.4824 C 13.34574 7.022761 13.779264 5.607281 13.779264 4.672333 C 13.779264 4.144793 13.664354 3.784394 13.251723 3.784394 Z M 13.251723 3.784394 " stroke="#221e1a" stroke-width="5.49" stroke-opacity="1" stroke-miterlimit="4"/></g><g clip-path="url(#f36119f2ff)"><path stroke-linecap="butt" transform="matrix(0.747869, 0, 0, 0.747869, 160.98184, 4.720549)" fill="none" stroke-linejoin="miter" d="M 12.653914 3.518012 C 12.392755 3.612029 11.645841 3.690377 10.998168 3.690377 C 10.611653 3.690377 10.27737 3.664261 10.105005 3.591137 C 10.037104 3.565021 9.96398 3.518012 9.896079 3.518012 C 9.770722 3.518012 9.723714 3.690377 9.723714 3.758278 C 9.723714 3.930643 9.843847 4.144793 9.896079 4.23881 C 10.010988 4.385059 10.710893 4.411175 10.710893 4.698449 L 10.710893 4.719342 C 10.637769 5.100633 8.428367 12.209371 8.308234 12.611555 C 7.994844 11.58259 6.265974 6.589238 5.811558 5.246882 C 5.717541 4.985724 5.670532 4.792466 5.670532 4.651441 C 5.670532 4.479076 5.957807 4.264926 6.438339 4.118677 C 6.532356 4.092561 6.699497 4.045553 6.699497 3.883634 C 6.699497 3.664261 6.553248 3.471004 6.359991 3.471004 C 6.312982 3.471004 5.691425 3.690377 4.343846 3.690377 C 2.980598 3.690377 0.99057 3.591137 0.389905 3.324755 C 0.316781 3.303862 0.196648 3.230738 0.0765147 3.230738 C -0.064511 3.230738 -0.142859 3.350871 -0.142859 3.471004 C -0.142859 3.664261 -0.0175024 3.930643 0.149639 3.998544 C 0.222763 4.045553 1.10548 4.385059 1.424093 5.178981 C 1.606904 5.659513 4.296838 12.303388 4.77737 13.744984 C 4.422194 14.131498 3.941662 13.938241 3.915546 14.272524 L 3.915546 14.293417 C 3.915546 14.72694 4.850494 14.465781 4.949734 15.855145 C 5.017636 16.962458 5.043752 17.944414 5.043752 18.931594 C 5.043752 19.720293 5.017636 20.394082 4.970627 20.796266 C 4.902726 21.062648 4.923619 21.109657 4.610228 21.161888 C 4.396078 21.188004 4.275945 21.42827 4.275945 21.64242 C 4.275945 21.908802 4.443087 22.044604 4.66246 22.044604 C 5.40415 22.044604 6.004815 21.997596 6.600257 21.997596 L 8.407474 21.997596 C 9.196174 21.997596 9.316306 22.023712 9.436439 22.023712 C 9.676705 22.023712 9.916971 21.950587 9.916971 21.64242 C 9.916971 21.302914 9.577465 21.161888 9.483448 21.140996 C 9.149165 21.083541 9.196174 20.921622 9.149165 20.582116 C 9.049925 20.033683 8.888006 17.009466 8.888006 14.946313 C 9.196174 14.100159 9.943087 14.486674 9.96398 14.053151 C 9.96398 13.697975 9.269298 13.812885 9.002916 13.092087 C 9.363315 11.989998 11.238434 5.607281 11.671957 4.745458 C 11.739858 4.573093 12.392755 4.358943 12.727038 4.358943 C 12.841948 4.358943 12.89418 4.385059 12.920295 4.385059 C 13.103106 4.385059 13.103106 3.930643 13.103106 3.805287 C 13.103106 3.612029 13.056098 3.450111 12.89418 3.450111 C 12.815832 3.450111 12.727038 3.49712 12.653914 3.518012 Z M 12.653914 3.518012 " stroke="#221e1a" stroke-width="5.49" stroke-opacity="1" stroke-miterlimit="4"/></g><g fill="#ffffff" fill-opacity="1"><g transform="translate(16.227693, 21.173673)"><g><path d="M 6.9375 -7.203125 C 9.234375 -7.421875 10.984375 -8.53125 10.984375 -10.8125 C 10.984375 -12.984375 9.6875 -13.15625 7.984375 -13.328125 C 7.34375 -13.375 6.609375 -13.390625 5.859375 -13.390625 C 4.421875 -13.390625 2.90625 -13.328125 1.671875 -13.296875 C 1.609375 -13.296875 1.453125 -13.265625 1.453125 -13.109375 C 1.453125 -12.796875 1.703125 -12.640625 1.9375 -12.640625 C 2.03125 -12.640625 2.09375 -12.65625 2.171875 -12.65625 C 2.375 -12.65625 2.4375 -12.546875 2.4375 -12.390625 C 2.4375 -12.21875 2.390625 -12.03125 2.375 -11.8125 C 2.359375 -11.375 2.1875 -9.234375 2.03125 -6.890625 C 1.828125 -6.09375 1.1875 -6.4375 1.171875 -6.109375 L 1.171875 -6.09375 C 1.171875 -5.796875 1.796875 -5.921875 1.90625 -5.1875 C 1.78125 -3.5625 1.6875 -2.03125 1.65625 -1.15625 C 1.609375 -0.453125 1.609375 -0.4375 1.34375 -0.34375 C 1.25 -0.3125 1.09375 -0.203125 1.09375 -0.03125 C 1.09375 0.109375 1.21875 0.265625 1.34375 0.265625 C 1.421875 0.265625 1.4375 0.25 1.53125 0.21875 C 2.03125 0.015625 2.6875 -0.015625 3.40625 -0.015625 C 4.5625 -0.015625 6 0.171875 6.671875 0.171875 C 9.125 0.171875 11.953125 -0.828125 11.953125 -3.609375 C 11.953125 -6.59375 9.1875 -7.203125 6.9375 -7.203125 Z M 6.390625 -0.328125 L 6.34375 -0.328125 C 5.578125 -0.328125 4.921875 -0.6875 4.828125 -1.109375 C 4.703125 -1.65625 4.671875 -2.3125 4.671875 -3.03125 C 4.671875 -4.9375 4.984375 -7.125 5.03125 -7.75 C 5.109375 -9.109375 5.21875 -10.59375 5.4375 -11.8125 C 5.578125 -12.5625 5.984375 -12.96875 6.78125 -12.96875 C 7.75 -12.96875 8.453125 -12.65625 8.453125 -11.515625 C 8.453125 -9.25 7.546875 -7.640625 5.53125 -7.21875 C 5.40625 -7.203125 5.34375 -7.0625 5.34375 -6.96875 C 5.34375 -6.859375 5.453125 -6.796875 5.53125 -6.796875 C 5.5625 -6.796875 5.578125 -6.796875 5.625 -6.828125 C 5.828125 -6.890625 6.03125 -6.90625 6.25 -6.90625 C 8.03125 -6.90625 9 -5.546875 9 -3.890625 C 9 -2.203125 8.078125 -0.375 6.390625 -0.328125 Z M 6.390625 -0.328125 "/></g></g></g><g fill="#ffffff" fill-opacity="1"><g transform="translate(28.361088, 21.173673)"><g><path d="M 5.5625 -13.390625 C 3.828125 -13.390625 2.625 -13.375 1.421875 -13.375 C 1.296875 -13.359375 1.125 -13.171875 1.125 -13.015625 C 1.125 -12.859375 1.28125 -12.8125 1.421875 -12.8125 C 1.53125 -12.8125 1.609375 -12.84375 1.671875 -12.84375 C 1.953125 -12.84375 1.96875 -12.625 2.015625 -12 L 2.015625 -11.921875 C 2.03125 -11.546875 2.046875 -10.890625 2.046875 -10.109375 C 2.046875 -9.140625 2.03125 -7.953125 2.015625 -6.78125 C 1.890625 -5.890625 1.203125 -6.234375 1.203125 -5.890625 L 1.203125 -5.875 C 1.203125 -5.5625 2 -5.5625 2 -5.015625 C 2 -3.734375 1.9375 -2.5 1.9375 -1.859375 C 1.9375 -0.84375 1.9375 -0.40625 1.609375 -0.28125 C 1.4375 -0.21875 1.109375 -0.078125 1.09375 0.09375 L 1.09375 0.109375 C 1.09375 0.234375 1.1875 0.265625 1.3125 0.265625 C 2.078125 0.265625 2.796875 0.203125 3.515625 0.203125 C 4.234375 0.203125 4.859375 0.21875 5.109375 0.234375 C 5.25 0.234375 5.296875 0.171875 5.296875 0.09375 C 5.296875 -0.03125 5.265625 -0.234375 5.171875 -0.234375 L 5.109375 -0.234375 C 4.859375 -0.234375 4.84375 -0.453125 4.828125 -0.765625 C 4.828125 -2.078125 4.71875 -3.34375 4.71875 -4.59375 C 4.71875 -5.78125 5.53125 -5.375 5.53125 -5.75 L 5.53125 -5.765625 C 5.53125 -6.0625 4.859375 -5.875 4.703125 -6.671875 C 4.71875 -9.640625 4.84375 -11.484375 4.84375 -11.90625 C 4.84375 -12.15625 4.84375 -12.78125 5.171875 -12.78125 C 5.1875 -12.78125 5.390625 -12.765625 5.5 -12.765625 C 5.734375 -12.765625 5.8125 -12.875 5.8125 -13.0625 C 5.8125 -13.234375 5.765625 -13.375 5.5625 -13.390625 Z M 5.5625 -13.390625 "/></g></g></g><g fill="#ffffff" fill-opacity="1"><g transform="translate(35.271382, 21.173673)"><g><path d="M 13.109375 1.09375 C 9.921875 1.09375 13.03125 -6.28125 7.640625 -6.28125 L 7.453125 -6.28125 C 9.53125 -6.859375 11.328125 -8.203125 11.328125 -10.515625 C 11.328125 -12 10.46875 -13.609375 8.09375 -13.609375 C 7.828125 -13.609375 3.953125 -13.375 2.515625 -13.375 C 1.9375 -13.375 1.671875 -13.421875 1.421875 -13.421875 C 1.15625 -13.421875 1.078125 -13.359375 1.078125 -13.25 C 1.078125 -12.890625 1.421875 -12.734375 1.53125 -12.734375 C 2.1875 -12.609375 2.203125 -12.09375 2.203125 -11.546875 C 2.203125 -10.921875 2.171875 -9.015625 2.125 -7 C 2 -6.109375 1.3125 -6.4375 1.296875 -6.09375 C 1.296875 -5.78125 1.921875 -5.953125 2.078125 -5.25 C 2.0625 -3.625 2.046875 -2.3125 2.046875 -1 C 2.046875 -0.59375 2 -0.59375 1.65625 -0.578125 C 1.59375 -0.578125 1.359375 -0.40625 1.359375 -0.140625 C 1.359375 -0.078125 1.46875 0.015625 1.578125 0.015625 C 2.40625 0.015625 5.09375 0 5.46875 0.015625 C 5.703125 0.015625 5.8125 -0.015625 5.8125 -0.21875 C 5.8125 -0.390625 5.734375 -0.609375 5.4375 -0.609375 C 5.4375 -0.609375 5.15625 -0.609375 5.15625 -0.890625 C 5.15625 -1.3125 5.046875 -4.046875 5.046875 -6.796875 C 5.046875 -9.46875 5.171875 -12.125 5.640625 -12.6875 C 5.8125 -12.96875 6.71875 -13.015625 6.984375 -13.015625 C 7.75 -13.015625 8.59375 -12.6875 8.59375 -11.34375 C 8.59375 -9.03125 7.6875 -6.90625 5.140625 -6.359375 C 5.109375 -6.34375 5.09375 -6.296875 5.09375 -6.25 C 5.09375 -6.09375 5.203125 -5.828125 5.625 -5.828125 C 9.921875 -5.828125 5.671875 1.484375 12.21875 1.484375 C 12.5 1.484375 12.796875 1.46875 13.109375 1.453125 C 13.25 1.4375 13.359375 1.375 13.359375 1.234375 C 13.359375 1.109375 13.234375 1.09375 13.109375 1.09375 Z M 13.109375 1.09375 "/></g></g></g><g fill="#ffffff" fill-opacity="1"><g transform="translate(48.086837, 21.173673)"><g><path d="M 10.28125 -13.625 C 9.03125 -13.53125 4.203125 -13.390625 1.703125 -13.390625 L 0.96875 -13.390625 C 0.46875 -13.390625 0.375 -12.8125 0.375 -12.1875 C 0.375 -11.78125 0.40625 -11.34375 0.40625 -11 C 0.40625 -10.75 0.375 -10.640625 0.375 -10.53125 C 0.375 -10.453125 0.40625 -10.359375 0.5 -10.34375 C 0.578125 -10.328125 0.671875 -10.328125 0.765625 -10.328125 L 1.0625 -10.328125 C 1.234375 -10.359375 1.28125 -10.53125 1.28125 -10.765625 C 1.28125 -10.96875 1.25 -11.203125 1.25 -11.453125 C 1.25 -12.078125 1.421875 -12.734375 2.65625 -12.734375 C 3.234375 -12.734375 3.859375 -12.734375 3.859375 -12.15625 C 3.859375 -12 3.84375 -11.8125 3.84375 -11.5625 C 3.828125 -11.28125 3.8125 -9.203125 3.765625 -6.984375 C 3.640625 -6.109375 2.96875 -6.4375 2.96875 -6.09375 L 2.96875 -6.0625 C 2.96875 -5.78125 3.609375 -5.9375 3.75 -5.171875 C 3.71875 -3.0625 3.6875 -1.21875 3.65625 -0.96875 C 3.65625 -0.640625 3.453125 -0.625 3.0625 -0.609375 C 2.796875 -0.59375 2.5625 -0.578125 2.5625 -0.3125 C 2.5625 -0.171875 2.578125 -0.015625 2.734375 -0.015625 C 3.046875 -0.015625 6.90625 0 7.4375 0.015625 C 7.90625 0.015625 7.921875 -0.203125 7.921875 -0.46875 C 7.921875 -0.609375 7.75 -0.625 7.546875 -0.625 L 7.203125 -0.625 C 7.0625 -0.625 6.9375 -0.625 6.875 -0.6875 C 6.65625 -0.859375 6.59375 -2.859375 6.59375 -5.140625 C 6.71875 -5.984375 7.375 -5.65625 7.375 -6 C 7.375 -6.296875 6.78125 -6.140625 6.59375 -6.78125 C 6.625 -9.0625 6.765625 -11.28125 6.859375 -11.9375 C 6.890625 -12.203125 6.90625 -12.765625 7.125 -12.78125 C 7.421875 -12.78125 7.625 -12.8125 7.859375 -12.8125 C 9.1875 -12.8125 9.5 -12.484375 9.5 -11.953125 C 9.5 -11.65625 9.390625 -11.296875 9.328125 -10.875 C 9.328125 -10.71875 9.65625 -10.453125 9.90625 -10.453125 C 10.203125 -10.453125 10.140625 -10.515625 10.25 -10.859375 C 10.359375 -11.203125 10.6875 -12.265625 10.6875 -12.96875 C 10.6875 -13.359375 10.59375 -13.625 10.28125 -13.625 Z M 10.28125 -13.625 "/></g></g></g><g fill="#ffffff" fill-opacity="1"><g transform="translate(59.1433, 21.173673)"><g><path d="M 12.21875 -13.375 L 12.203125 -13.375 C 11.765625 -13.25 10.890625 -13.171875 10.078125 -13.171875 C 9.3125 -13.171875 8.578125 -13.234375 8.171875 -13.375 C 8.109375 -13.390625 8.0625 -13.40625 8 -13.40625 C 7.796875 -13.40625 7.75 -13.203125 7.75 -13.03125 C 7.75 -12.734375 8.078125 -12.703125 8.171875 -12.703125 C 8.515625 -12.703125 8.6875 -12.421875 8.71875 -12.140625 C 8.75 -11.9375 8.765625 -11.59375 8.765625 -11.1875 C 8.765625 -10.3125 8.65625 -8.15625 8.5625 -5.984375 C 8.15625 -6 7.734375 -6 7.328125 -6 C 6.5 -6 5.6875 -5.984375 4.96875 -5.953125 C 4.96875 -7.96875 5.0625 -12.5625 5.546875 -12.578125 C 5.875 -12.609375 6.34375 -12.625 6.34375 -12.984375 C 6.34375 -13.125 6.28125 -13.296875 6.046875 -13.296875 C 5.875 -13.296875 5.5625 -13.21875 4.84375 -13.21875 L 3.125 -13.21875 C 2.53125 -13.21875 1.953125 -13.21875 1.734375 -13.234375 L 1.71875 -13.234375 C 1.5625 -13.234375 1.421875 -13.046875 1.40625 -12.890625 C 1.40625 -12.6875 1.484375 -12.578125 1.65625 -12.578125 C 1.78125 -12.578125 1.890625 -12.625 1.96875 -12.625 C 2.125 -12.625 2.203125 -12.515625 2.203125 -11.96875 L 2.203125 -11.703125 C 2.203125 -11.546875 2.125 -9.25 2.046875 -6.78125 C 1.921875 -5.890625 1.234375 -6.234375 1.234375 -5.890625 C 1.234375 -5.5625 1.890625 -5.765625 2 -4.90625 C 2 -4.796875 1.96875 -4.671875 1.96875 -4.5625 C 1.9375 -3.390625 1.921875 -2.328125 1.921875 -1.25 C 1.921875 -0.640625 1.890625 -0.28125 1.21875 -0.171875 C 1.125 -0.15625 1.078125 0.015625 1.078125 0.140625 C 1.078125 0.3125 1.203125 0.359375 1.328125 0.359375 C 1.484375 0.359375 1.671875 0.3125 1.765625 0.265625 C 1.9375 0.21875 2.5625 0.203125 3.28125 0.203125 C 5.109375 0.203125 5.640625 0.328125 5.78125 0.328125 C 5.921875 0.328125 5.984375 0.21875 6 0.140625 C 6 -0.03125 5.765625 -0.265625 5.53125 -0.28125 C 5.03125 -0.34375 4.9375 -1.828125 4.9375 -3.140625 C 4.9375 -3.984375 4.96875 -4.625 4.96875 -5.28125 L 4.96875 -5.3125 C 5.28125 -5.328125 5.625 -5.328125 5.9375 -5.328125 C 6.828125 -5.328125 7.734375 -5.3125 8.546875 -5.28125 C 8.4375 -2.734375 8.328125 -0.375 8.125 -0.328125 C 8.0625 -0.25 7.59375 -0.265625 7.59375 0.21875 C 7.625 0.3125 7.703125 0.34375 7.78125 0.34375 C 7.8125 0.34375 7.84375 0.328125 7.90625 0.328125 C 8.21875 0.25 10.359375 0.15625 11.453125 0.15625 L 11.859375 0.15625 C 12.0625 0.15625 12.140625 -0.015625 12.140625 -0.15625 C 12.140625 -0.265625 12.09375 -0.359375 12.046875 -0.359375 C 11.828125 -0.390625 11.46875 -0.34375 11.40625 -0.625 C 11.34375 -0.75 11.328125 -1.34375 11.328125 -2.1875 C 11.328125 -3.28125 11.359375 -4.125 11.359375 -4.953125 C 11.5625 -5.734375 12.1875 -5.40625 12.203125 -5.734375 C 12.203125 -6.046875 11.546875 -5.890625 11.4375 -6.671875 C 11.546875 -9.1875 11.6875 -11.640625 11.765625 -12.078125 C 11.8125 -12.4375 11.90625 -12.78125 12.3125 -12.90625 C 12.375 -12.9375 12.4375 -12.984375 12.4375 -13.046875 C 12.4375 -13.15625 12.3125 -13.375 12.21875 -13.375 Z M 12.21875 -13.375 "/></g></g></g><g fill="#ffffff" fill-opacity="1"><g transform="translate(72.65875, 21.173673)"><g><path d="M 10.765625 -6.625 C 10.84375 -7.59375 10.875 -8.421875 10.875 -9.25 C 10.875 -10.875 10.46875 -13.484375 6.375 -13.484375 C 5.40625 -13.484375 4.5625 -13.265625 3.6875 -13.265625 C 2.734375 -13.265625 1.578125 -13.453125 1.34375 -13.5 L 1.328125 -13.5 C 1.234375 -13.5 1.1875 -13.328125 1.1875 -13.203125 C 1.1875 -13.125 1.1875 -13.09375 1.21875 -13.0625 C 1.46875 -12.96875 1.921875 -12.875 1.953125 -12.28125 C 2.015625 -11.546875 2.046875 -10.734375 2.046875 -9.859375 C 2.046875 -8.90625 2.015625 -7.875 1.96875 -6.890625 C 1.84375 -5.859375 1.109375 -6.265625 1.09375 -5.90625 L 1.09375 -5.890625 C 1.09375 -5.578125 1.78125 -5.75 1.859375 -4.90625 C 1.71875 -2.359375 1.46875 -0.515625 1.46875 -0.109375 C 1.46875 0.09375 1.515625 0.265625 1.71875 0.265625 C 2.03125 0.28125 2.328125 0.28125 2.625 0.28125 C 8.09375 0.28125 9.953125 -2.390625 10.53125 -5.09375 C 10.828125 -5.78125 11.375 -5.40625 11.4375 -5.734375 L 11.4375 -5.75 C 11.4375 -6.015625 10.859375 -5.984375 10.765625 -6.625 Z M 4.96875 -0.5625 C 4.890625 -0.53125 4.8125 -0.515625 4.75 -0.515625 C 4.703125 -0.515625 4.671875 -0.53125 4.671875 -0.59375 C 4.65625 -0.875 4.5625 -3.25 4.5625 -5.8125 C 4.5625 -9.015625 4.6875 -12.53125 5.265625 -12.640625 C 5.546875 -12.6875 5.875 -12.75 6.1875 -12.75 C 7.34375 -12.75 8.484375 -12.078125 8.484375 -8.421875 C 8.484375 -5.40625 8.078125 -1.671875 4.96875 -0.5625 Z M 4.96875 -0.5625 "/></g></g></g><g fill="#ffffff" fill-opacity="1"><g transform="translate(84.469059, 21.173673)"><g><path d="M 11.484375 -1.015625 C 11.28125 -1.015625 11.078125 -0.5 10.59375 -0.5 C 10.5625 -0.5 10.515625 -0.515625 10.46875 -0.515625 C 10.359375 -0.96875 10.046875 -2.671875 9.75 -4.71875 C 9.828125 -5.421875 10.40625 -5.265625 10.40625 -5.546875 L 10.40625 -5.5625 C 10.375 -5.875 9.765625 -5.59375 9.5 -6.3125 C 9.140625 -8.828125 8.828125 -11.453125 8.828125 -12.609375 C 8.828125 -12.96875 8.84375 -13.171875 8.921875 -13.21875 C 8.984375 -13.25 9.0625 -13.34375 9.5625 -13.484375 C 9.640625 -13.5 9.6875 -13.65625 9.6875 -13.828125 C 9.6875 -13.96875 9.65625 -14.171875 9.5 -14.171875 C 9.4375 -14.171875 9.40625 -14.140625 9.359375 -14.109375 C 8.984375 -13.75 8.515625 -13.734375 8.0625 -13.734375 C 7.0625 -13.734375 5.65625 -13.9375 4.453125 -13.9375 C 2.859375 -13.9375 1.859375 -13.546875 1.484375 -12.15625 C 1.46875 -12.0625 1.453125 -12 1.453125 -11.921875 C 1.453125 -11.6875 1.640625 -11.46875 1.84375 -11.46875 C 1.953125 -11.46875 2.0625 -11.53125 2.0625 -11.578125 L 2.0625 -11.65625 C 2.0625 -12.703125 3 -13.296875 3.890625 -13.296875 C 3.875 -13.21875 3.859375 -13.109375 3.859375 -12.96875 C 3.859375 -11.953125 3.34375 -9.125 2.78125 -6.46875 C 2.484375 -5.53125 1.84375 -6.03125 1.78125 -5.6875 L 1.78125 -5.65625 C 1.78125 -5.40625 2.375 -5.40625 2.375 -4.671875 C 2.0625 -3.203125 1.8125 -2.0625 1.640625 -1.4375 C 1.53125 -1.015625 1.25 -0.578125 0.828125 -0.40625 C 0.640625 -0.34375 0.359375 -0.125 0.359375 0.046875 C 0.359375 0.125 0.390625 0.140625 0.453125 0.140625 C 0.75 0.140625 1.359375 0 3.359375 0 C 3.421875 0 3.484375 -0.03125 3.484375 -0.109375 L 3.484375 -0.140625 C 3.484375 -0.21875 3.453125 -0.46875 3.359375 -0.484375 C 2.8125 -0.5 2.671875 -0.703125 2.671875 -1.015625 C 2.671875 -1.25 2.765625 -1.46875 2.765625 -1.671875 C 2.8125 -2.03125 3.109375 -3.40625 3.484375 -5.078125 C 4.046875 -5.140625 4.671875 -5.15625 5.328125 -5.15625 C 5.796875 -5.15625 6.25 -5.140625 6.703125 -5.109375 C 6.9375 -3.359375 7.109375 -1.859375 7.109375 -1.203125 C 7.0625 -0.71875 6.78125 -0.375 6.1875 -0.15625 C 5.953125 -0.078125 5.890625 0.015625 5.890625 0.125 C 5.890625 0.265625 5.953125 0.484375 6.109375 0.484375 C 6.171875 0.484375 6.265625 0.4375 6.3125 0.390625 C 6.828125 0.125 7.34375 0.046875 7.875 0.046875 L 10.625 0.046875 C 11.1875 0.046875 11.609375 -0.59375 11.609375 -0.875 C 11.609375 -0.96875 11.5625 -1.015625 11.484375 -1.015625 Z M 3.59375 -5.640625 L 5.28125 -13.15625 C 5.390625 -13.15625 5.5 -13.171875 5.5625 -13.171875 C 5.5625 -13.171875 6.171875 -9.109375 6.625 -5.703125 L 6.40625 -5.703125 C 5.328125 -5.703125 4.34375 -5.671875 3.59375 -5.640625 Z M 3.59375 -5.640625 "/></g></g></g><g fill="#ffffff" fill-opacity="1"><g transform="translate(96.440919, 21.173673)"><g><path d="M 9.84375 -13.828125 C 9.640625 -13.75 9.078125 -13.703125 8.59375 -13.703125 C 8.3125 -13.703125 8.0625 -13.71875 7.9375 -13.765625 C 7.875 -13.78125 7.828125 -13.828125 7.78125 -13.828125 C 7.6875 -13.828125 7.640625 -13.703125 7.640625 -13.640625 C 7.640625 -13.515625 7.734375 -13.359375 7.78125 -13.28125 C 7.859375 -13.171875 8.390625 -13.15625 8.390625 -12.9375 L 8.390625 -12.921875 C 8.328125 -12.640625 6.671875 -7.328125 6.59375 -7.015625 C 6.359375 -7.796875 5.0625 -11.53125 4.71875 -12.53125 C 4.65625 -12.734375 4.609375 -12.875 4.609375 -12.984375 C 4.609375 -13.109375 4.828125 -13.265625 5.1875 -13.375 C 5.265625 -13.390625 5.390625 -13.421875 5.390625 -13.546875 C 5.390625 -13.71875 5.28125 -13.859375 5.140625 -13.859375 C 5.09375 -13.859375 4.625 -13.703125 3.625 -13.703125 C 2.609375 -13.703125 1.109375 -13.765625 0.671875 -13.96875 C 0.609375 -13.984375 0.515625 -14.046875 0.4375 -14.046875 C 0.328125 -14.046875 0.265625 -13.953125 0.265625 -13.859375 C 0.265625 -13.71875 0.359375 -13.515625 0.484375 -13.46875 C 0.53125 -13.421875 1.203125 -13.171875 1.4375 -12.578125 C 1.578125 -12.21875 3.59375 -7.25 3.953125 -6.171875 C 3.6875 -5.890625 3.328125 -6.03125 3.296875 -5.78125 L 3.296875 -5.765625 C 3.296875 -5.4375 4 -5.640625 4.078125 -4.59375 C 4.125 -3.765625 4.140625 -3.03125 4.140625 -2.296875 C 4.140625 -1.703125 4.125 -1.203125 4.09375 -0.890625 C 4.046875 -0.703125 4.0625 -0.671875 3.828125 -0.625 C 3.65625 -0.609375 3.578125 -0.4375 3.578125 -0.265625 C 3.578125 -0.078125 3.703125 0.03125 3.859375 0.03125 C 4.421875 0.03125 4.859375 0 5.3125 0 L 6.65625 0 C 7.25 0 7.34375 0.015625 7.4375 0.015625 C 7.609375 0.015625 7.796875 -0.03125 7.796875 -0.265625 C 7.796875 -0.515625 7.546875 -0.625 7.46875 -0.640625 C 7.21875 -0.6875 7.25 -0.8125 7.21875 -1.0625 C 7.140625 -1.46875 7.015625 -3.734375 7.015625 -5.28125 C 7.25 -5.90625 7.8125 -5.625 7.828125 -5.9375 C 7.828125 -6.21875 7.3125 -6.125 7.109375 -6.65625 C 7.375 -7.484375 8.78125 -12.265625 9.109375 -12.90625 C 9.15625 -13.03125 9.640625 -13.203125 9.890625 -13.203125 C 9.984375 -13.203125 10.015625 -13.171875 10.03125 -13.171875 C 10.171875 -13.171875 10.171875 -13.515625 10.171875 -13.609375 C 10.171875 -13.75 10.140625 -13.875 10.015625 -13.875 C 9.96875 -13.875 9.890625 -13.84375 9.84375 -13.828125 Z M 9.84375 -13.828125 "/></g></g></g><g fill="#ffffff" fill-opacity="1"><g transform="translate(106.887118, 21.173673)"><g/></g></g><g fill="#ffffff" fill-opacity="1"><g transform="translate(113.169206, 21.173673)"><g><path d="M 2.53125 -13.375 C 2 -13.375 1.796875 -13.40625 1.59375 -13.40625 C 1.171875 -13.40625 1.078125 -13.203125 1.078125 -13.0625 C 1.078125 -12.78125 1.3125 -12.734375 1.53125 -12.734375 C 2.046875 -12.65625 2.203125 -12.40625 2.203125 -11.734375 L 2.203125 -6.9375 C 2.09375 -6 1.40625 -6.34375 1.40625 -5.984375 C 1.40625 -5.671875 2.03125 -5.859375 2.203125 -5.140625 C 2.203125 -2.609375 2.21875 -1.8125 2.21875 -1 C 2.21875 -0.59375 2.171875 -0.59375 1.828125 -0.578125 C 1.78125 -0.578125 1.546875 -0.40625 1.546875 -0.140625 C 1.546875 -0.078125 1.65625 0 1.765625 0 C 2.171875 0.015625 3.046875 0.015625 3.875 0.015625 L 5.65625 0.015625 C 5.890625 0.015625 6 -0.015625 6 -0.21875 C 6 -0.390625 5.90625 -0.609375 5.59375 -0.609375 C 5.5 -0.609375 5.328125 -0.703125 5.328125 -1.015625 C 5.328125 -1.6875 5.203125 -4.5 5.203125 -7.234375 C 5.203125 -9.953125 5.328125 -12.53125 5.859375 -12.8125 C 5.90625 -12.859375 6.4375 -13.03125 7.03125 -13.03125 C 7.796875 -13.03125 8.640625 -12.734375 8.640625 -11.34375 C 8.640625 -9.015625 7.703125 -6.90625 5.3125 -6.375 C 5.28125 -6.359375 5.28125 -6.296875 5.28125 -6.25 C 5.28125 -5.90625 5.625 -5.859375 5.875 -5.859375 C 8.5625 -6.234375 11.421875 -7.578125 11.421875 -10.453125 C 11.421875 -11.90625 10.609375 -13.609375 8.234375 -13.609375 C 6.71875 -13.609375 6.578125 -13.375 2.53125 -13.375 Z M 2.53125 -13.375 "/></g></g></g><g fill="#ffffff" fill-opacity="1"><g transform="translate(124.764137, 21.173673)"><g><path d="M 11.484375 -1.015625 C 11.28125 -1.015625 11.078125 -0.5 10.59375 -0.5 C 10.5625 -0.5 10.515625 -0.515625 10.46875 -0.515625 C 10.359375 -0.96875 10.046875 -2.671875 9.75 -4.71875 C 9.828125 -5.421875 10.40625 -5.265625 10.40625 -5.546875 L 10.40625 -5.5625 C 10.375 -5.875 9.765625 -5.59375 9.5 -6.3125 C 9.140625 -8.828125 8.828125 -11.453125 8.828125 -12.609375 C 8.828125 -12.96875 8.84375 -13.171875 8.921875 -13.21875 C 8.984375 -13.25 9.0625 -13.34375 9.5625 -13.484375 C 9.640625 -13.5 9.6875 -13.65625 9.6875 -13.828125 C 9.6875 -13.96875 9.65625 -14.171875 9.5 -14.171875 C 9.4375 -14.171875 9.40625 -14.140625 9.359375 -14.109375 C 8.984375 -13.75 8.515625 -13.734375 8.0625 -13.734375 C 7.0625 -13.734375 5.65625 -13.9375 4.453125 -13.9375 C 2.859375 -13.9375 1.859375 -13.546875 1.484375 -12.15625 C 1.46875 -12.0625 1.453125 -12 1.453125 -11.921875 C 1.453125 -11.6875 1.640625 -11.46875 1.84375 -11.46875 C 1.953125 -11.46875 2.0625 -11.53125 2.0625 -11.578125 L 2.0625 -11.65625 C 2.0625 -12.703125 3 -13.296875 3.890625 -13.296875 C 3.875 -13.21875 3.859375 -13.109375 3.859375 -12.96875 C 3.859375 -11.953125 3.34375 -9.125 2.78125 -6.46875 C 2.484375 -5.53125 1.84375 -6.03125 1.78125 -5.6875 L 1.78125 -5.65625 C 1.78125 -5.40625 2.375 -5.40625 2.375 -4.671875 C 2.0625 -3.203125 1.8125 -2.0625 1.640625 -1.4375 C 1.53125 -1.015625 1.25 -0.578125 0.828125 -0.40625 C 0.640625 -0.34375 0.359375 -0.125 0.359375 0.046875 C 0.359375 0.125 0.390625 0.140625 0.453125 0.140625 C 0.75 0.140625 1.359375 0 3.359375 0 C 3.421875 0 3.484375 -0.03125 3.484375 -0.109375 L 3.484375 -0.140625 C 3.484375 -0.21875 3.453125 -0.46875 3.359375 -0.484375 C 2.8125 -0.5 2.671875 -0.703125 2.671875 -1.015625 C 2.671875 -1.25 2.765625 -1.46875 2.765625 -1.671875 C 2.8125 -2.03125 3.109375 -3.40625 3.484375 -5.078125 C 4.046875 -5.140625 4.671875 -5.15625 5.328125 -5.15625 C 5.796875 -5.15625 6.25 -5.140625 6.703125 -5.109375 C 6.9375 -3.359375 7.109375 -1.859375 7.109375 -1.203125 C 7.0625 -0.71875 6.78125 -0.375 6.1875 -0.15625 C 5.953125 -0.078125 5.890625 0.015625 5.890625 0.125 C 5.890625 0.265625 5.953125 0.484375 6.109375 0.484375 C 6.171875 0.484375 6.265625 0.4375 6.3125 0.390625 C 6.828125 0.125 7.34375 0.046875 7.875 0.046875 L 10.625 0.046875 C 11.1875 0.046875 11.609375 -0.59375 11.609375 -0.875 C 11.609375 -0.96875 11.5625 -1.015625 11.484375 -1.015625 Z M 3.59375 -5.640625 L 5.28125 -13.15625 C 5.390625 -13.15625 5.5 -13.171875 5.5625 -13.171875 C 5.5625 -13.171875 6.171875 -9.109375 6.625 -5.703125 L 6.40625 -5.703125 C 5.328125 -5.703125 4.34375 -5.671875 3.59375 -5.640625 Z M 3.59375 -5.640625 "/></g></g></g><g fill="#ffffff" fill-opacity="1"><g transform="translate(136.73599, 21.173673)"><g><path d="M 13.109375 1.09375 C 9.921875 1.09375 13.03125 -6.28125 7.640625 -6.28125 L 7.453125 -6.28125 C 9.53125 -6.859375 11.328125 -8.203125 11.328125 -10.515625 C 11.328125 -12 10.46875 -13.609375 8.09375 -13.609375 C 7.828125 -13.609375 3.953125 -13.375 2.515625 -13.375 C 1.9375 -13.375 1.671875 -13.421875 1.421875 -13.421875 C 1.15625 -13.421875 1.078125 -13.359375 1.078125 -13.25 C 1.078125 -12.890625 1.421875 -12.734375 1.53125 -12.734375 C 2.1875 -12.609375 2.203125 -12.09375 2.203125 -11.546875 C 2.203125 -10.921875 2.171875 -9.015625 2.125 -7 C 2 -6.109375 1.3125 -6.4375 1.296875 -6.09375 C 1.296875 -5.78125 1.921875 -5.953125 2.078125 -5.25 C 2.0625 -3.625 2.046875 -2.3125 2.046875 -1 C 2.046875 -0.59375 2 -0.59375 1.65625 -0.578125 C 1.59375 -0.578125 1.359375 -0.40625 1.359375 -0.140625 C 1.359375 -0.078125 1.46875 0.015625 1.578125 0.015625 C 2.40625 0.015625 5.09375 0 5.46875 0.015625 C 5.703125 0.015625 5.8125 -0.015625 5.8125 -0.21875 C 5.8125 -0.390625 5.734375 -0.609375 5.4375 -0.609375 C 5.4375 -0.609375 5.15625 -0.609375 5.15625 -0.890625 C 5.15625 -1.3125 5.046875 -4.046875 5.046875 -6.796875 C 5.046875 -9.46875 5.171875 -12.125 5.640625 -12.6875 C 5.8125 -12.96875 6.71875 -13.015625 6.984375 -13.015625 C 7.75 -13.015625 8.59375 -12.6875 8.59375 -11.34375 C 8.59375 -9.03125 7.6875 -6.90625 5.140625 -6.359375 C 5.109375 -6.34375 5.09375 -6.296875 5.09375 -6.25 C 5.09375 -6.09375 5.203125 -5.828125 5.625 -5.828125 C 9.921875 -5.828125 5.671875 1.484375 12.21875 1.484375 C 12.5 1.484375 12.796875 1.46875 13.109375 1.453125 C 13.25 1.4375 13.359375 1.375 13.359375 1.234375 C 13.359375 1.109375 13.234375 1.09375 13.109375 1.09375 Z M 13.109375 1.09375 "/></g></g></g><g fill="#ffffff" fill-opacity="1"><g transform="translate(149.551446, 21.173673)"><g><path d="M 10.28125 -13.625 C 9.03125 -13.53125 4.203125 -13.390625 1.703125 -13.390625 L 0.96875 -13.390625 C 0.46875 -13.390625 0.375 -12.8125 0.375 -12.1875 C 0.375 -11.78125 0.40625 -11.34375 0.40625 -11 C 0.40625 -10.75 0.375 -10.640625 0.375 -10.53125 C 0.375 -10.453125 0.40625 -10.359375 0.5 -10.34375 C 0.578125 -10.328125 0.671875 -10.328125 0.765625 -10.328125 L 1.0625 -10.328125 C 1.234375 -10.359375 1.28125 -10.53125 1.28125 -10.765625 C 1.28125 -10.96875 1.25 -11.203125 1.25 -11.453125 C 1.25 -12.078125 1.421875 -12.734375 2.65625 -12.734375 C 3.234375 -12.734375 3.859375 -12.734375 3.859375 -12.15625 C 3.859375 -12 3.84375 -11.8125 3.84375 -11.5625 C 3.828125 -11.28125 3.8125 -9.203125 3.765625 -6.984375 C 3.640625 -6.109375 2.96875 -6.4375 2.96875 -6.09375 L 2.96875 -6.0625 C 2.96875 -5.78125 3.609375 -5.9375 3.75 -5.171875 C 3.71875 -3.0625 3.6875 -1.21875 3.65625 -0.96875 C 3.65625 -0.640625 3.453125 -0.625 3.0625 -0.609375 C 2.796875 -0.59375 2.5625 -0.578125 2.5625 -0.3125 C 2.5625 -0.171875 2.578125 -0.015625 2.734375 -0.015625 C 3.046875 -0.015625 6.90625 0 7.4375 0.015625 C 7.90625 0.015625 7.921875 -0.203125 7.921875 -0.46875 C 7.921875 -0.609375 7.75 -0.625 7.546875 -0.625 L 7.203125 -0.625 C 7.0625 -0.625 6.9375 -0.625 6.875 -0.6875 C 6.65625 -0.859375 6.59375 -2.859375 6.59375 -5.140625 C 6.71875 -5.984375 7.375 -5.65625 7.375 -6 C 7.375 -6.296875 6.78125 -6.140625 6.59375 -6.78125 C 6.625 -9.0625 6.765625 -11.28125 6.859375 -11.9375 C 6.890625 -12.203125 6.90625 -12.765625 7.125 -12.78125 C 7.421875 -12.78125 7.625 -12.8125 7.859375 -12.8125 C 9.1875 -12.8125 9.5 -12.484375 9.5 -11.953125 C 9.5 -11.65625 9.390625 -11.296875 9.328125 -10.875 C 9.328125 -10.71875 9.65625 -10.453125 9.90625 -10.453125 C 10.203125 -10.453125 10.140625 -10.515625 10.25 -10.859375 C 10.359375 -11.203125 10.6875 -12.265625 10.6875 -12.96875 C 10.6875 -13.359375 10.59375 -13.625 10.28125 -13.625 Z M 10.28125 -13.625 "/></g></g></g><g fill="#ffffff" fill-opacity="1"><g transform="translate(160.607905, 21.173673)"><g><path d="M 9.84375 -13.828125 C 9.640625 -13.75 9.078125 -13.703125 8.59375 -13.703125 C 8.3125 -13.703125 8.0625 -13.71875 7.9375 -13.765625 C 7.875 -13.78125 7.828125 -13.828125 7.78125 -13.828125 C 7.6875 -13.828125 7.640625 -13.703125 7.640625 -13.640625 C 7.640625 -13.515625 7.734375 -13.359375 7.78125 -13.28125 C 7.859375 -13.171875 8.390625 -13.15625 8.390625 -12.9375 L 8.390625 -12.921875 C 8.328125 -12.640625 6.671875 -7.328125 6.59375 -7.015625 C 6.359375 -7.796875 5.0625 -11.53125 4.71875 -12.53125 C 4.65625 -12.734375 4.609375 -12.875 4.609375 -12.984375 C 4.609375 -13.109375 4.828125 -13.265625 5.1875 -13.375 C 5.265625 -13.390625 5.390625 -13.421875 5.390625 -13.546875 C 5.390625 -13.71875 5.28125 -13.859375 5.140625 -13.859375 C 5.09375 -13.859375 4.625 -13.703125 3.625 -13.703125 C 2.609375 -13.703125 1.109375 -13.765625 0.671875 -13.96875 C 0.609375 -13.984375 0.515625 -14.046875 0.4375 -14.046875 C 0.328125 -14.046875 0.265625 -13.953125 0.265625 -13.859375 C 0.265625 -13.71875 0.359375 -13.515625 0.484375 -13.46875 C 0.53125 -13.421875 1.203125 -13.171875 1.4375 -12.578125 C 1.578125 -12.21875 3.59375 -7.25 3.953125 -6.171875 C 3.6875 -5.890625 3.328125 -6.03125 3.296875 -5.78125 L 3.296875 -5.765625 C 3.296875 -5.4375 4 -5.640625 4.078125 -4.59375 C 4.125 -3.765625 4.140625 -3.03125 4.140625 -2.296875 C 4.140625 -1.703125 4.125 -1.203125 4.09375 -0.890625 C 4.046875 -0.703125 4.0625 -0.671875 3.828125 -0.625 C 3.65625 -0.609375 3.578125 -0.4375 3.578125 -0.265625 C 3.578125 -0.078125 3.703125 0.03125 3.859375 0.03125 C 4.421875 0.03125 4.859375 0 5.3125 0 L 6.65625 0 C 7.25 0 7.34375 0.015625 7.4375 0.015625 C 7.609375 0.015625 7.796875 -0.03125 7.796875 -0.265625 C 7.796875 -0.515625 7.546875 -0.625 7.46875 -0.640625 C 7.21875 -0.6875 7.25 -0.8125 7.21875 -1.0625 C 7.140625 -1.46875 7.015625 -3.734375 7.015625 -5.28125 C 7.25 -5.90625 7.8125 -5.625 7.828125 -5.9375 C 7.828125 -6.21875 7.3125 -6.125 7.109375 -6.65625 C 7.375 -7.484375 8.78125 -12.265625 9.109375 -12.90625 C 9.15625 -13.03125 9.640625 -13.203125 9.890625 -13.203125 C 9.984375 -13.203125 10.015625 -13.171875 10.03125 -13.171875 C 10.171875 -13.171875 10.171875 -13.515625 10.171875 -13.609375 C 10.171875 -13.75 10.140625 -13.875 10.015625 -13.875 C 9.96875 -13.875 9.890625 -13.84375 9.84375 -13.828125 Z M 9.84375 -13.828125 "/></g></g></g><g clip-path="url(#90395ee082)"><path stroke-linecap="butt" transform="matrix(0.747869, 0, 0, 0.747869, 127.195969, 34.640149)" fill="none" stroke-linejoin="miter" d="M 29.839106 22.021531 C 28.575098 22.021531 27.943094 21.880505 27.943094 21.593231 L 27.493902 13.042898 L 24.892762 21.702917 C 24.835307 21.875282 24.349552 21.958853 23.44072 21.958853 C 22.531888 21.958853 22.061802 21.880505 22.035687 21.72381 L 19.345753 12.954104 L 19.048032 21.467875 C 19.032363 21.682025 18.760758 21.828273 18.233217 21.906621 C 17.7109 21.984969 17.272153 22.021531 16.927424 22.021531 C 16.577472 22.021531 16.243188 22.000638 15.908905 21.958853 C 15.229893 21.859612 14.89561 21.676801 14.91128 21.420866 L 15.402258 7.558567 C 15.402258 7.21906 16.269304 7.046696 18.003398 7.046696 C 18.515268 7.046696 19.142049 7.088481 19.878516 7.166829 C 20.620207 7.245176 21.032837 7.396648 21.116408 7.621245 L 23.503398 14.343468 L 25.59789 7.600352 C 25.723246 7.23473 26.705203 7.046696 28.538536 7.046696 C 29.066077 7.046696 29.69808 7.088481 30.429324 7.166829 C 31.160569 7.245176 31.526191 7.380979 31.526191 7.579459 L 32.142525 21.572338 C 32.142525 21.729033 31.865697 21.843943 31.312041 21.917067 C 30.758384 21.984969 30.267406 22.021531 29.839106 22.021531 Z M 41.189059 12.995889 C 41.455441 12.995889 41.591244 13.49209 41.591244 14.489716 C 41.591244 14.787437 41.559905 15.142613 41.492003 15.55002 C 41.429325 15.952205 41.314416 16.155908 41.147274 16.155908 L 38.436448 16.155908 L 38.436448 18.286963 L 42.35905 18.286963 C 42.599316 18.286963 42.766457 18.600353 42.850028 19.227134 C 42.891814 19.498739 42.917929 19.78079 42.917929 20.088957 C 42.917929 20.391901 42.870921 20.788862 42.78735 21.274617 C 42.703779 21.760372 42.562754 22.000638 42.35905 22.000638 L 35.062278 22.000638 C 34.524292 22.000638 34.25791 21.781265 34.25791 21.337295 L 34.25791 7.621245 C 34.25791 7.255623 34.419828 7.067588 34.743665 7.067588 L 42.379943 7.067588 C 42.677664 7.067588 42.829136 7.699592 42.829136 8.958377 C 42.829136 10.217161 42.677664 10.843942 42.379943 10.843942 L 38.436448 10.843942 L 38.436448 12.995889 Z M 46.177189 18.328748 L 46.177189 10.734255 L 44.662469 10.734255 C 44.422203 10.734255 44.249838 10.431311 44.150598 9.8202 C 44.108813 9.522479 44.08792 9.214312 44.08792 8.900922 C 44.08792 8.592755 44.108813 8.284588 44.150598 7.986867 C 44.249838 7.375756 44.422203 7.067588 44.662469 7.067588 L 51.833885 7.067588 C 52.074151 7.067588 52.236069 7.375756 52.31964 7.986867 C 52.377094 8.284588 52.40321 8.592755 52.40321 8.900922 C 52.40321 9.214312 52.377094 9.522479 52.31964 9.8202 C 52.236069 10.431311 52.074151 10.734255 51.833885 10.734255 L 50.397512 10.734255 L 50.397512 18.328748 L 51.896563 18.328748 C 52.131605 18.328748 52.30397 18.636915 52.40321 19.248026 C 52.465888 19.55097 52.492004 19.853914 52.492004 20.167305 C 52.492004 20.480695 52.465888 20.783639 52.40321 21.08136 C 52.30397 21.692471 52.131605 22.000638 51.896563 22.000638 L 44.709478 22.000638 C 44.463988 22.000638 44.30207 21.692471 44.213276 21.08136 C 44.155821 20.783639 44.129705 20.480695 44.129705 20.167305 C 44.129705 19.853914 44.155821 19.55097 44.213276 19.248026 C 44.30207 18.636915 44.463988 18.328748 44.709478 18.328748 Z M 46.177189 18.328748 " stroke="#221e1a" stroke-width="5.599991" stroke-opacity="1" stroke-miterlimit="4"/></g><g fill="#ffffff" fill-opacity="1"><g transform="translate(137.549284, 51.093273)"><g><path d="M 11.96875 0.015625 C 11.019531 0.015625 10.546875 -0.0859375 10.546875 -0.296875 L 10.203125 -6.703125 L 8.265625 -0.21875 C 8.222656 -0.09375 7.859375 -0.03125 7.171875 -0.03125 C 6.492188 -0.03125 6.144531 -0.0859375 6.125 -0.203125 L 4.109375 -6.765625 L 3.890625 -0.40625 C 3.878906 -0.238281 3.675781 -0.125 3.28125 -0.0625 C 2.894531 -0.0078125 2.570312 0.015625 2.3125 0.015625 C 2.050781 0.015625 1.796875 0 1.546875 -0.03125 C 1.035156 -0.101562 0.785156 -0.238281 0.796875 -0.4375 L 1.171875 -10.796875 C 1.171875 -11.054688 1.816406 -11.1875 3.109375 -11.1875 C 3.492188 -11.1875 3.960938 -11.15625 4.515625 -11.09375 C 5.066406 -11.03125 5.375 -10.914062 5.4375 -10.75 L 7.234375 -5.734375 L 8.796875 -10.765625 C 8.890625 -11.046875 9.617188 -11.1875 10.984375 -11.1875 C 11.378906 -11.1875 11.847656 -11.15625 12.390625 -11.09375 C 12.941406 -11.03125 13.21875 -10.925781 13.21875 -10.78125 L 13.6875 -0.3125 C 13.6875 -0.195312 13.476562 -0.113281 13.0625 -0.0625 C 12.644531 -0.0078125 12.28125 0.015625 11.96875 0.015625 Z M 11.96875 0.015625 "/></g></g></g><g fill="#ffffff" fill-opacity="1"><g transform="translate(152.016576, 51.093273)"><g><path d="M 5.984375 -6.734375 C 6.179688 -6.734375 6.28125 -6.359375 6.28125 -5.609375 C 6.28125 -5.390625 6.253906 -5.128906 6.203125 -4.828125 C 6.160156 -4.523438 6.078125 -4.375 5.953125 -4.375 L 3.921875 -4.375 L 3.921875 -2.78125 L 6.859375 -2.78125 C 7.035156 -2.78125 7.160156 -2.546875 7.234375 -2.078125 C 7.265625 -1.867188 7.28125 -1.648438 7.28125 -1.421875 C 7.28125 -1.191406 7.242188 -0.894531 7.171875 -0.53125 C 7.109375 -0.175781 7.003906 0 6.859375 0 L 1.40625 0 C 1 0 0.796875 -0.164062 0.796875 -0.5 L 0.796875 -10.75 C 0.796875 -11.03125 0.921875 -11.171875 1.171875 -11.171875 L 6.875 -11.171875 C 7.09375 -11.171875 7.203125 -10.695312 7.203125 -9.75 C 7.203125 -8.8125 7.09375 -8.34375 6.875 -8.34375 L 3.921875 -8.34375 L 3.921875 -6.734375 Z M 5.984375 -6.734375 "/></g></g></g><g fill="#ffffff" fill-opacity="1"><g transform="translate(159.880272, 51.093273)"><g><path d="M 1.84375 -2.75 L 1.84375 -8.421875 L 0.71875 -8.421875 C 0.539062 -8.421875 0.410156 -8.648438 0.328125 -9.109375 C 0.296875 -9.328125 0.28125 -9.550781 0.28125 -9.78125 C 0.28125 -10.019531 0.296875 -10.253906 0.328125 -10.484375 C 0.410156 -10.941406 0.539062 -11.171875 0.71875 -11.171875 L 6.078125 -11.171875 C 6.253906 -11.171875 6.375 -10.941406 6.4375 -10.484375 C 6.488281 -10.253906 6.515625 -10.019531 6.515625 -9.78125 C 6.515625 -9.550781 6.488281 -9.328125 6.4375 -9.109375 C 6.375 -8.648438 6.253906 -8.421875 6.078125 -8.421875 L 5.015625 -8.421875 L 5.015625 -2.75 L 6.125 -2.75 C 6.300781 -2.75 6.429688 -2.519531 6.515625 -2.0625 C 6.554688 -1.832031 6.578125 -1.597656 6.578125 -1.359375 C 6.578125 -1.128906 6.554688 -0.90625 6.515625 -0.6875 C 6.429688 -0.226562 6.300781 0 6.125 0 L 0.75 0 C 0.570312 0 0.453125 -0.226562 0.390625 -0.6875 C 0.335938 -0.90625 0.3125 -1.128906 0.3125 -1.359375 C 0.3125 -1.597656 0.335938 -1.832031 0.390625 -2.0625 C 0.453125 -2.519531 0.570312 -2.75 0.75 -2.75 Z M 1.84375 -2.75 "/></g></g></g></svg>